<svg id="Layer_1" data-name="Layer 1" xmlns="http://www.w3.org/2000/svg" viewBox="0 0 117.29 111.85">
  <title>icon-health</title>
  <g>
    <path   d="M2356.39,2007.89h0a3.23,3.23,0,0,1-2.1-.79c-27.53-21.66-42.56-40.54-43.5-41.73a56.43,56.43,0,0,1-13-35.37,38.41,38.41,0,0,1,7-21.51,29.07,29.07,0,0,1,24.13-12.45h0.49a31.11,31.11,0,0,1,23.28,10.09,36.26,36.26,0,0,1,3.78,4.82,36.24,36.24,0,0,1,3.78-4.82A31.15,31.15,0,0,1,2384,1896a29,29,0,0,1,24.14,12.7A39,39,0,0,1,2415,1930a56.43,56.43,0,0,1-13,35.37c-0.95,1.2-16,20.11-43.58,41.8A3.28,3.28,0,0,1,2356.39,2007.89ZM2359,2003c0.05,0.09.11,0.18,0.15,0.27Zm-29.62-100.71h-0.4c-18.14.25-24.9,17.15-24.9,27.75,0,0,0,.09,0,0.13a50.92,50.92,0,0,0,11.61,31.22l0.05,0.07c0.15,0.19,14.61,18.47,40.71,39.31,26.14-20.87,40.56-39.12,40.7-39.31l0.05-.07a50.92,50.92,0,0,0,11.62-31.23s0-.08,0-0.12c0-8.94-6.09-27.5-24.9-27.75h-0.4c-17.65,0-24,16-24.06,16.18l0,0.07a3.22,3.22,0,0,1-6-.07C2353.14,1917.84,2346.86,1902.31,2329.34,1902.31Z" transform="translate(-2297.76 -1896.04)"/>
    <path   d="M2362.76,1972.64a1.74,1.74,0,0,1-1.6-1.06l-14.57-34-1.84,11.35a2.06,2.06,0,0,1-1.72,1.77h-36.52a2,2,0,0,1,0-4h35l2.58-15.49a1.77,1.77,0,0,1,1.51-1.47,1.73,1.73,0,0,1,1.81,1l14.88,34.7,4.39-17.5a1.69,1.69,0,0,1,1.69-1.26h39.73a2,2,0,0,1,0,4h-38.37l-5.31,20.93a1.59,1.59,0,0,1-1.55,1.15S2362.8,1972.64,2362.76,1972.64Z" transform="translate(-2297.76 -1896.04)"/>
  </g>
</svg>
