<svg xmlns="http://www.w3.org/2000/svg" xmlns:xlink="http://www.w3.org/1999/xlink" preserveAspectRatio="xMidYMid" width="16.437" height="15" viewBox="0 0 16.437 15">
  <path d="M12.974,14.974 C12.884,14.974 12.793,14.951 12.711,14.904 L8.207,12.308 L3.700,14.904 C3.522,15.006 3.299,14.995 3.132,14.877 C2.966,14.758 2.889,14.554 2.937,14.359 L4.135,9.490 L0.158,6.220 C-0.001,6.090 -0.063,5.879 0.001,5.687 C0.064,5.495 0.241,5.359 0.448,5.342 L5.694,4.923 L7.734,0.307 C7.815,0.124 8.001,0.005 8.207,0.005 L8.207,0.005 C8.413,0.005 8.598,0.124 8.679,0.308 L10.718,4.923 L15.964,5.342 C16.171,5.359 16.348,5.495 16.411,5.687 C16.475,5.879 16.413,6.090 16.254,6.220 L12.276,9.490 L13.474,14.359 C13.523,14.554 13.445,14.758 13.279,14.877 C13.189,14.941 13.082,14.974 12.974,14.974 ZM1.770,6.238 L5.042,8.928 C5.190,9.049 5.254,9.241 5.209,9.424 L4.220,13.445 L7.944,11.299 C8.106,11.205 8.308,11.205 8.469,11.299 L12.191,13.444 L11.202,9.424 C11.157,9.241 11.221,9.049 11.370,8.928 L14.642,6.238 L10.324,5.893 C10.135,5.877 9.969,5.761 9.894,5.592 L8.207,1.770 L6.517,5.592 C6.442,5.761 6.277,5.877 6.087,5.893 L1.770,6.238 Z"/>
</svg>
