<svg id="Слой_1" data-name="Слой 1" xmlns="http://www.w3.org/2000/svg" xmlns:xlink="http://www.w3.org/1999/xlink" viewBox="0 0 32.74 27.37">
	<path  d="M14.06,3.76H5.89a3.2,3.2,0,0,0-1.36.3H3.11A3,3,0,0,0,.26,7V10.3h1.5v-3A3,3,0,0,1,4,4.4,3.19,3.19,0,0,0,2.69,7V9.63L1.44,13v3.85H2.58V13.2L6,10.3h9.06A3.21,3.21,0,0,0,16,10.18l3.43,1.14,0.08,3.79,0.84,0.15,0.6-5.2L18,8.41a3.17,3.17,0,0,0,.27-1.3V4.56a1,1,0,0,1,.85-1l0.74,2.08a0.38,0.38,0,0,0,.4.36h1.5A1.15,1.15,0,0,0,22,5.38V1l1-1H19.79a4.77,4.77,0,0,0-4.36,2.8A1.65,1.65,0,0,1,14.06,3.76ZM5.82,11.7v1.84l3.06,3.82h1.35L7.57,13.54l0.81-2.08H6.11Zm8.13,1.8L13,17.37h1l2.12-5.91H13.95v2h0Z"/>
</svg>
