<svg id="Layer_1" data-name="Layer 1" xmlns="http://www.w3.org/2000/svg" viewBox="0 0 114.74 115.96">
  <title>icon-food</title>
  <g>
    <path   d="M2066.62,1691.1a3.13,3.13,0,0,1-2.21-5.35l20.67-20.67a3.13,3.13,0,0,1,4.43,4.43l-20.67,20.67A3.12,3.12,0,0,1,2066.62,1691.1Z" transform="translate(-1990.43 -1657.04)"/>
    <path   d="M2074.37,1698.85a3.13,3.13,0,0,1-2.22-5.35l20.67-20.67a3.13,3.13,0,1,1,4.43,4.43l-20.67,20.67A3.12,3.12,0,0,1,2074.37,1698.85Z" transform="translate(-1990.43 -1657.04)"/>
    <path   d="M1995.37,1768.72a3.12,3.12,0,0,1-2.21-.92,9.26,9.26,0,0,1-2.71-7.21c0.5-10.1,15.43-22.67,17.37-24.26l38.15-33.72c-0.82-7.67,4.19-17.4,14.92-29a161.92,161.92,0,0,1,17.31-16,3.13,3.13,0,1,1,3.84,4.95,158.63,158.63,0,0,0-16.62,15.33c-9.81,10.58-14.44,19.48-13,25.07a3.13,3.13,0,0,1-1,3.11l-39.5,34.91-0.09.08c-5.7,4.67-14.85,14.17-15.12,19.77a3,3,0,0,0,.89,2.47A3.13,3.13,0,0,1,1995.37,1768.72Z" transform="translate(-1990.43 -1657.04)"/>
    <path   d="M2001.08,1771.78a9.21,9.21,0,0,1-6.67-2.73,3.13,3.13,0,0,1,4.43-4.43,3,3,0,0,0,2.47.89c5.6-.28,15.1-9.42,19.77-15.12l0.08-.09,34.91-39.5a3.13,3.13,0,0,1,3.11-1c5.6,1.4,14.53-3.25,25.13-13.09a158.29,158.29,0,0,0,15.27-16.56,3.13,3.13,0,0,1,4.95,3.84,162.24,162.24,0,0,1-16,17.31c-11.56,10.73-21.29,15.74-29,14.92l-33.71,38.15c-1.59,1.94-14.16,16.86-24.26,17.37h-0.54Z" transform="translate(-1990.43 -1657.04)"/>
    <path   d="M2090.13,1773a3.13,3.13,0,0,1-2.21-.92l-42-42-5,5a3.13,3.13,0,0,1-4.43,0l-4.81-4.81c-21.72-21.72-34.43-40-37.77-54.46-2.73-11.78,1.89-16.82,2.43-17.35a3.13,3.13,0,0,1,4.43,0l100.35,100.35a3.13,3.13,0,0,1,0,4.43l-8.78,8.79A3.14,3.14,0,0,1,2090.13,1773Zm-44.18-50.45a3.13,3.13,0,0,1,2.22.92l42,42,4.35-4.35-94.9-94.9c-1.22,6.66,1,24.17,36.53,59.71l2.59,2.59,5-5A3.13,3.13,0,0,1,2045.95,1722.56Z" transform="translate(-1990.43 -1657.04)"/>
    <path   d="M2055.77,1736.73a1.74,1.74,0,0,1-1.23-3l8.53-8.53a1.74,1.74,0,0,1,2.46,2.46l-8.53,8.53A1.73,1.73,0,0,1,2055.77,1736.73Z" transform="translate(-1990.43 -1657.04)"/>
  </g>
</svg>
