<svg id="Layer_1" data-name="Layer 1" xmlns="http://www.w3.org/2000/svg" viewBox="0 0 130.5 112.87">
  <title>icon-shoping</title>
  <g>
    <path   d="M2450.56,606.93a2.61,2.61,0,0,1-1.88-.81,3,3,0,0,1-.8-2.32V545.54a2.43,2.43,0,0,1,2.69-2.69H2558.1a2.5,2.5,0,0,1,2.78,2.69v48a3,3,0,0,1-2.66,3.12l-107.44,10.3h-0.21Zm3.31-58.09v51.51l101-9.71v-41.8h-101Z" transform="translate(-2430.38 -531.84)"/>
    <path   d="M2450.63,548.53A3.34,3.34,0,0,1,2448,547l-6-9.11h-8.52a3,3,0,1,1,0-6h10.19a3.19,3.19,0,0,1,2.6,1.45l6.93,10.34A3.16,3.16,0,0,1,2450.63,548.53Z" transform="translate(-2430.38 -531.84)"/>
    <path   d="M2555,630.84h-97.52c-7.34,0-9.57-5.78-9.57-9.87V597a3,3,0,1,1,6,0v23.8h-0.31a6.83,6.83,0,0,0,.67,2.31,3.22,3.22,0,0,0,3.21,1.69H2555A3,3,0,1,1,2555,630.84Z" transform="translate(-2430.38 -531.84)"/>
    <path   d="M2471.27,644.72A10.19,10.19,0,0,1,2464,642a11.73,11.73,0,0,1-3.12-7.3v-3.56a3.52,3.52,0,0,1,7,0v3.61h0a4.27,4.27,0,0,0,.43,2.15c0.38,0.72,1,1.55,3,1.55s2.65-.83,3-1.55a4.85,4.85,0,0,0,.5-2.18V628a3,3,0,1,1,6,0v6.69a10.48,10.48,0,0,1-2.72,7.3A9.13,9.13,0,0,1,2471.27,644.72Z" transform="translate(-2430.38 -531.84)"/>
    <path   d="M2537.74,644.72a9.47,9.47,0,0,1-7-2.71,10.87,10.87,0,0,1-2.85-7.3v-3.56a3.52,3.52,0,0,1,7,0v3.61h0a3,3,0,0,0,.17,2.15c0.38,0.72.89,1.55,2.89,1.55s2.35-.83,2.74-1.55a3.22,3.22,0,0,0,.2-2.18V628a3.52,3.52,0,0,1,7,0v6.69a11.3,11.3,0,0,1-3,7.3A9.84,9.84,0,0,1,2537.74,644.72Z" transform="translate(-2430.38 -531.84)"/>
    <path   d="M2476.88,602.26a2,2,0,0,1-2-1.74v-55a2,2,0,0,1,4,0v55A2,2,0,0,1,2476.88,602.26Z" transform="translate(-2430.38 -531.84)"/>
    <path   d="M2504.88,598.78a2,2,0,0,1-2-1.74v-51.5a2,2,0,0,1,4,0V597A2,2,0,0,1,2504.88,598.78Z" transform="translate(-2430.38 -531.84)"/>
    <path   d="M2531.88,598.78a2,2,0,0,1-2-1.74v-51.5a2,2,0,0,1,4,0V597A2,2,0,0,1,2531.88,598.78Z" transform="translate(-2430.38 -531.84)"/>
    <path   d="M2558.1,574.84H2450.57a2,2,0,0,1,0-4H2558.1A2,2,0,0,1,2558.1,574.84Z" transform="translate(-2430.38 -531.84)"/>
  </g>
</svg>
