<svg id="Layer_1" data-name="Layer 1" xmlns="http://www.w3.org/2000/svg" viewBox="0 0 103.71 141.29">
  <title>icon-village</title>
  <g>
    <path   d="M2663.33,1005.41a3.12,3.12,0,0,1-2.21-.92l-6.64-6.64a3.13,3.13,0,0,1,4.43-4.43l6.64,6.64A3.13,3.13,0,0,1,2663.33,1005.41Z" transform="translate(-2602.62 -939.35)"/>
    <path   d="M2637.74,986.71a3.12,3.12,0,0,1-2-.69l-32-25.59a3.13,3.13,0,0,1-.26-4.66l15.5-15.5a3.13,3.13,0,0,1,4.68.28l25.35,32.24a3.13,3.13,0,0,1-.25,4.15l-8.86,8.86A3.12,3.12,0,0,1,2637.74,986.71Zm-27.3-29,27.07,21.65,4.91-4.91L2621,947.19Z" transform="translate(-2602.62 -939.35)"/>
    <path   d="M2652,990.16a3.12,3.12,0,0,1-2.21-.92l-6.64-6.64a3.13,3.13,0,0,1,4.43-4.43l6.64,6.64A3.13,3.13,0,0,1,2652,990.16Z" transform="translate(-2602.62 -939.35)"/>
    <path   d="M2658.91,992.12a3.13,3.13,0,0,1-2.21-5.35l6.64-6.64a3.13,3.13,0,1,1,4.43,4.43l-6.64,6.64A3.12,3.12,0,0,1,2658.91,992.12Z" transform="translate(-2602.62 -939.35)"/>
    <path   d="M2643.65,1003.44a3.13,3.13,0,0,1-2.21-5.35l6.64-6.64a3.13,3.13,0,1,1,4.43,4.43l-6.64,6.64A3.13,3.13,0,0,1,2643.65,1003.44Z" transform="translate(-2602.62 -939.35)"/>
    <path   d="M2654.27,999.12a7.83,7.83,0,1,1,5.54-2.29A7.79,7.79,0,0,1,2654.27,999.12Zm0-9.4a1.57,1.57,0,1,0,1.11.46A1.56,1.56,0,0,0,2654.27,989.73Z" transform="translate(-2602.62 -939.35)"/>
    <path   d="M2635.78,974a1.74,1.74,0,0,1-1.23-3l2.71-2.71a1.74,1.74,0,0,1,2.46,2.46l-2.71,2.71A1.73,1.73,0,0,1,2635.78,974Z" transform="translate(-2602.62 -939.35)"/>
    <path   d="M2629.62,966.86a1.74,1.74,0,0,1-1.23-3l2.71-2.71a1.74,1.74,0,1,1,2.46,2.46l-2.71,2.71A1.74,1.74,0,0,1,2629.62,966.86Z" transform="translate(-2602.62 -939.35)"/>
    <path   d="M2624.31,959.87a1.74,1.74,0,0,1-1.23-3l2.71-2.71a1.74,1.74,0,0,1,2.46,2.46l-2.71,2.71A1.74,1.74,0,0,1,2624.31,959.87Z" transform="translate(-2602.62 -939.35)"/>
    <path   d="M2621.26,1043.06a3.13,3.13,0,0,1-2.21-.92l-15.5-15.5a3.13,3.13,0,0,1,.28-4.68l32.24-25.35a3.13,3.13,0,0,1,4.15.25l8.86,8.86a3.13,3.13,0,0,1,.23,4.17l-25.59,32a3.13,3.13,0,0,1-2.27,1.17h-0.17Zm-10.79-18.35,10.53,10.53,21.65-27.07-4.91-4.91Z" transform="translate(-2602.62 -939.35)"/>
    <path   d="M2635,1012.14a1.73,1.73,0,0,1-1.23-.51l-2.71-2.71a1.74,1.74,0,1,1,2.46-2.46l2.71,2.71A1.74,1.74,0,0,1,2635,1012.14Z" transform="translate(-2602.62 -939.35)"/>
    <path   d="M2628.39,1017.8a1.73,1.73,0,0,1-1.23-.51l-2.71-2.71a1.74,1.74,0,0,1,2.46-2.46l2.71,2.71A1.74,1.74,0,0,1,2628.39,1017.8Z" transform="translate(-2602.62 -939.35)"/>
    <path   d="M2621.4,1023.11a1.74,1.74,0,0,1-1.23-.51l-2.71-2.71a1.74,1.74,0,1,1,2.46-2.46l2.71,2.71A1.74,1.74,0,0,1,2621.4,1023.11Z" transform="translate(-2602.62 -939.35)"/>
    <path   d="M2687.7,1043.06h-0.17a3.13,3.13,0,0,1-2.27-1.17l-25.59-32a3.13,3.13,0,0,1,.23-4.17l8.86-8.86a3.13,3.13,0,0,1,4.15-.25l32.24,25.35a3.13,3.13,0,0,1,.28,4.68l-15.5,15.5A3.13,3.13,0,0,1,2687.7,1043.06Zm-21.39-34.89,21.65,27.07,10.53-10.53-27.28-21.45Z" transform="translate(-2602.62 -939.35)"/>
    <path   d="M2670.72,1015.34a1.74,1.74,0,0,1-1.23-3l2.71-2.71a1.74,1.74,0,0,1,2.46,2.46l-2.71,2.71A1.74,1.74,0,0,1,2670.72,1015.34Z" transform="translate(-2602.62 -939.35)"/>
    <path   d="M2676.13,1022.23a1.74,1.74,0,0,1-1.23-3l2.71-2.71a1.74,1.74,0,0,1,2.46,2.46l-2.71,2.71A1.73,1.73,0,0,1,2676.13,1022.23Z" transform="translate(-2602.62 -939.35)"/>
    <path   d="M2681.54,1029.12a1.74,1.74,0,0,1-1.23-3l2.71-2.71a1.74,1.74,0,1,1,2.46,2.46l-2.71,2.71A1.74,1.74,0,0,1,2681.54,1029.12Z" transform="translate(-2602.62 -939.35)"/>
    <path   d="M2671.21,986.71a3.12,3.12,0,0,1-2.21-.92l-8.86-8.86a3.13,3.13,0,0,1-.25-4.15l25.35-32.23a3.13,3.13,0,0,1,4.68-.28l15.5,15.5a3.13,3.13,0,0,1-.26,4.66l-32,25.59A3.12,3.12,0,0,1,2671.21,986.71Zm-4.68-12.24,4.91,4.91,27.07-21.65L2688,947.19Z" transform="translate(-2602.62 -939.35)"/>
    <path   d="M2676.87,976.71a1.73,1.73,0,0,1-1.23-.51l-2.71-2.71a1.74,1.74,0,1,1,2.46-2.46l2.71,2.71A1.74,1.74,0,0,1,2676.87,976.71Z" transform="translate(-2602.62 -939.35)"/>
    <path   d="M2683.76,971.29a1.73,1.73,0,0,1-1.23-.51l-2.71-2.71a1.74,1.74,0,1,1,2.46-2.46l2.71,2.71A1.74,1.74,0,0,1,2683.76,971.29Z" transform="translate(-2602.62 -939.35)"/>
    <path   d="M2690.65,965.88a1.74,1.74,0,0,1-1.23-.51l-2.71-2.71a1.74,1.74,0,1,1,2.46-2.46l2.71,2.71A1.74,1.74,0,0,1,2690.65,965.88Z" transform="translate(-2602.62 -939.35)"/>
    <path   d="M2665.44,974a3.12,3.12,0,0,1-1.53-.4l-9.61-5.39-9.2,5.36a3.13,3.13,0,1,1-3.15-5.41l10.75-6.26a3.13,3.13,0,0,1,3.11,0l11.17,6.26A3.13,3.13,0,0,1,2665.44,974Z" transform="translate(-2602.62 -939.35)"/>
    <path   d="M2668.69,1021.64H2640.5a3.52,3.52,0,0,1,0-7h28.19A3.52,3.52,0,0,1,2668.69,1021.64Z" transform="translate(-2602.62 -939.35)"/>
    <path   d="M2681.1,1008.43a3.13,3.13,0,0,1-3-2.27l-6.26-21.92a3.13,3.13,0,1,1,6-1.72l6.26,21.92A3.13,3.13,0,0,1,2681.1,1008.43Z" transform="translate(-2602.62 -939.35)"/>
    <path   d="M2627.86,1008.43a3.13,3.13,0,0,1-3-4l6.26-21.92a3.13,3.13,0,1,1,6,1.72l-6.26,21.92A3.13,3.13,0,0,1,2627.86,1008.43Z" transform="translate(-2602.62 -939.35)"/>
    <path   d="M2687.36,1080.64h-65.77a3.28,3.28,0,0,1-3.12-3.5l3.13-40.74a3.14,3.14,0,0,1,3.36-2.89,3.34,3.34,0,0,1,2.88,3.58l-2.87,37.56h59l-2.87-37.56a3.23,3.23,0,0,1,2.88-3.47,3.08,3.08,0,0,1,3.36,2.83l3.13,40.69a3.3,3.3,0,0,1-.83,2.44A3.21,3.21,0,0,1,2687.36,1080.64Z" transform="translate(-2602.62 -939.35)"/>
    <path   d="M2645.65,1080.47a3,3,0,0,1-3-3.13v-18.79c0-5,3.31-12.53,12.5-12.53s12.5,7.49,12.5,12.53v15.66a3.52,3.52,0,0,1-7,0v-15.66h0a8.45,8.45,0,0,0-.9-3.44c-1-1.92-2.71-2.82-5.34-2.82s-4.07.9-5.09,2.82a6.54,6.54,0,0,0-.67,3.47v18.77A3,3,0,0,1,2645.65,1080.47Z" transform="translate(-2602.62 -939.35)"/>
  </g>
</svg>
