<svg id="Layer_1" data-name="Layer 1" xmlns="http://www.w3.org/2000/svg" viewBox="0 0 17.02 17.02">
  <defs>
    <style>
      .cls-1 {
        fill: #fff;
        fill-rule: evenodd;
      }
    </style>
  </defs>
  <title>icon-community</title>
  <path class="cls-1" d="M21.24,34.72A1.81,1.81,0,1,0,23,36.52,1.81,1.81,0,0,0,21.24,34.72ZM19,38.8a3.22,3.22,0,1,1,4.56,0,4.9,4.9,0,0,1,3,4.43,0.71,0.71,0,0,1-.71.71h-6.4a0.71,0.71,0,1,1,0-1.42h5.61a3.83,3.83,0,0,0-3.82-2.77,4.15,4.15,0,0,0-2.43.76A0.71,0.71,0,0,1,18,39.35,5.47,5.47,0,0,1,19,38.8Zm-4.1,2.3a1.81,1.81,0,1,0,1.81,1.81A1.81,1.81,0,0,0,14.86,41.1ZM11,48.9h7.64a3.83,3.83,0,0,0-3.82-2.77A3.83,3.83,0,0,0,11,48.9Zm1.54-3.72a4.9,4.9,0,0,0-3,4.43,0.71,0.71,0,0,0,.71.71h9.22a0.71,0.71,0,0,0,.71-0.71,4.9,4.9,0,0,0-3-4.43A3.22,3.22,0,1,0,12.58,45.18Z" transform="translate(-9.54 -33.3)"/>
</svg>
