<svg id="Layer_1" data-name="Layer 1" xmlns="http://www.w3.org/2000/svg" viewBox="19 27 42 27">
  <title>icon-mail</title>
  <path d="M57.11,26.25H22.89a3.84,3.84,0,0,0-3.83,3.83V49.92a3.84,3.84,0,0,0,3.83,3.83H57.11a3.84,3.84,0,0,0,3.83-3.83V30.08A3.84,3.84,0,0,0,57.11,26.25Zm2.33,23.67a2.33,2.33,0,0,1-2.33,2.33H22.89a2.33,2.33,0,0,1-2.33-2.33V30.08a2.33,2.33,0,0,1,2.33-2.33H57.11a2.33,2.33,0,0,1,2.33,2.33V49.92Z"/>
  <path d="M22.06,30.3L40,44.11,57.94,30.3v1.89L40.46,45.65a0.74,0.74,0,0,1-.92,0L22.06,32.19V30.3Z"/>
  <path d="M55.07,49.11a0.74,0.74,0,0,1-.49-0.19L45.51,41a0.75,0.75,0,0,1,1-1.13l9.07,7.93A0.75,0.75,0,0,1,55.07,49.11Z"/>
  <path d="M24.65,49.11a0.75,0.75,0,0,1-.49-1.31l9.07-7.93a0.75,0.75,0,0,1,1,1.13l-9.07,7.93A0.75,0.75,0,0,1,24.65,49.11Z"/>
</svg>
