<svg id="Layer_1" data-name="Layer 1" xmlns="http://www.w3.org/2000/svg" viewBox="0 0 17.14 13.57">
  <defs>
    <style>
      .cls-1 {
        fill: #fff;
        fill-rule: evenodd;
      }
    </style>
  </defs>
  <title>icon-messages</title>
  <g>
    <path class="cls-1" d="M65.53,35H54.66a3.17,3.17,0,0,0-3.15,3.16v7.25a3.17,3.17,0,0,0,3.15,3.16H65.53a3.14,3.14,0,0,0,3.11-3.16V38.19A3.14,3.14,0,0,0,65.53,35Zm1.68,5v5.44a1.7,1.7,0,0,1-1.68,1.73H54.66a1.74,1.74,0,0,1-1.72-1.73V38.19a1.74,1.74,0,0,1,1.72-1.73H65.53a1.71,1.71,0,0,1,1.68,1.73V40Z" transform="translate(-51.51 -35.03)"/>
    <path class="cls-1" d="M64.36,39.67L60,42.61l-4.37-3.05a0.71,0.71,0,0,0-.82,1.17l4.77,3.34a0.71,0.71,0,0,0,.81,0l4.9-3.34a0.71,0.71,0,0,0,.19-1A0.78,0.78,0,0,0,64.36,39.67Z" transform="translate(-51.51 -35.03)"/>
  </g>
</svg>
