<svg id="Слой_1" data-name="Слой 1" xmlns="http://www.w3.org/2000/svg" xmlns:xlink="http://www.w3.org/1999/xlink" viewBox="0 0 90 82">
  <defs>
    <style>
      .cls-1 {
        fill: none;
        clip-rule: evenodd;
      }

      .cls-2 {
        clip-path: url(#clip-path);
      }

      .cls-3 {
        clip-path: url(#clip-path-2);
      }

      .cls-4 {
        clip-path: url(#clip-path-3);
      }
    </style>
    <clipPath id="clip-path">
      <path class="cls-1" d="M45,54.67a4.26,4.26,0,0,1,4.31,4.27A4.34,4.34,0,1,1,45,54.67Z"/>
    </clipPath>
    <clipPath id="clip-path-2">
      <path class="cls-1" d="M49.09,28.3V46.62a4.09,4.09,0,0,1-8.18,0V28.3A4.09,4.09,0,0,1,49.09,28.3Z"/>
    </clipPath>
    <clipPath id="clip-path-3">
      <path class="cls-1" d="M45,8.2a9.25,9.25,0,0,0-8.18,4.65L9.44,59.75v0.05a9.17,9.17,0,0,0-1.26,4.65A9.53,9.53,0,0,0,10.85,71a9.28,9.28,0,0,0,6.82,2.81H72.33A9.37,9.37,0,0,0,79.14,71a9.53,9.53,0,0,0,2.67-6.54,9,9,0,0,0-1.31-4.7L53.18,12.85A9.32,9.32,0,0,0,45,8.2Zm-15.27.59a17.76,17.76,0,0,1,30.55,0L87.6,55.7A17.39,17.39,0,0,1,90,64.45,17.51,17.51,0,0,1,72.33,81.91H17.67A17.39,17.39,0,0,1,2.4,55.7H2.35Z"/>
    </clipPath>
  </defs>
  <title>icon-warning</title>
  <g class="cls-2">
    <rect x="35.64" y="49.67" width="18.67" height="18.59"/>
  </g>
  <g class="cls-3">
    <rect x="35.91" y="19.25" width="18.18" height="36.43"/>
  </g>
  <g class="cls-4">
    <rect x="-5" y="-4.91" width="100" height="91.82"/>
  </g>
</svg>
