<svg id="Layer_1" data-name="Layer 1" xmlns="http://www.w3.org/2000/svg" viewBox="0 0 112.76 128.3">
  <title>icon-museum</title>
  <g>
    <path   d="M2853.56,1536.5H2747.07a3.12,3.12,0,0,1-1.33-5.95L2799,1505.5a3.13,3.13,0,0,1,2.67,0l53.24,25.06A3.12,3.12,0,0,1,2853.56,1536.5Zm-92.48-6h78.47L2800.31,1512Z" transform="translate(-2743.94 -1505.2)"/>
    <path   d="M2850.54,1544.5H2750.32a2,2,0,0,1,0-4h100.22A2,2,0,0,1,2850.54,1544.5Z" transform="translate(-2743.94 -1505.2)"/>
    <path   d="M2853.56,1633.5h-106.5a3,3,0,0,1-3-3.81l3.13-12.67a3.27,3.27,0,0,1,3-2.52h100.22a3.28,3.28,0,0,1,3,2.53l3.08,12.4a3,3,0,0,1,.15,1A3.12,3.12,0,0,1,2853.56,1633.5Zm-102.48-6h98.46l-1.57-6h-95.33Z" transform="translate(-2743.94 -1505.2)"/>
    <g>
      <path   d="M2848.11,1555.5h-7.66a3.52,3.52,0,0,1,0-7h7.66A3.52,3.52,0,0,1,2848.11,1555.5Z" transform="translate(-2743.94 -1505.2)"/>
      <path   d="M2848.11,1611.5h-7.66a3,3,0,1,1,0-6h7.66A3,3,0,1,1,2848.11,1611.5Z" transform="translate(-2743.94 -1505.2)"/>
      <path   d="M2844.15,1611.69a3,3,0,0,1-3-3.13v-56.72a3,3,0,1,1,6,0v56.72A3,3,0,0,1,2844.15,1611.69Z" transform="translate(-2743.94 -1505.2)"/>
    </g>
    <g>
      <path   d="M2826.18,1555.5h-7.66a3.52,3.52,0,0,1,0-7h7.66A3.52,3.52,0,0,1,2826.18,1555.5Z" transform="translate(-2743.94 -1505.2)"/>
      <path   d="M2826.18,1611.5h-7.66a3,3,0,1,1,0-6h7.66A3,3,0,1,1,2826.18,1611.5Z" transform="translate(-2743.94 -1505.2)"/>
      <path   d="M2822.15,1611.69a3,3,0,0,1-3-3.13v-56.72a3,3,0,1,1,6,0v56.72A3,3,0,0,1,2822.15,1611.69Z" transform="translate(-2743.94 -1505.2)"/>
    </g>
    <g>
      <path   d="M2804.61,1555.5h-7.66a3.52,3.52,0,0,1,0-7h7.66A3.52,3.52,0,0,1,2804.61,1555.5Z" transform="translate(-2743.94 -1505.2)"/>
      <path   d="M2804.61,1611.5h-7.66a3,3,0,1,1,0-6h7.66A3,3,0,1,1,2804.61,1611.5Z" transform="translate(-2743.94 -1505.2)"/>
      <path   d="M2801.15,1611.69a3,3,0,0,1-3-3.13v-56.72a3,3,0,1,1,6,0v56.72A3,3,0,0,1,2801.15,1611.69Z" transform="translate(-2743.94 -1505.2)"/>
    </g>
    <g>
      <path   d="M2782.68,1555.5H2775a3.52,3.52,0,0,1,0-7h7.66A3.52,3.52,0,0,1,2782.68,1555.5Z" transform="translate(-2743.94 -1505.2)"/>
      <path   d="M2782.68,1611.5H2775a3,3,0,1,1,0-6h7.66A3,3,0,1,1,2782.68,1611.5Z" transform="translate(-2743.94 -1505.2)"/>
      <path   d="M2779.15,1611.69a3,3,0,0,1-3-3.13v-56.72a3,3,0,1,1,6,0v56.72A3,3,0,0,1,2779.15,1611.69Z" transform="translate(-2743.94 -1505.2)"/>
    </g>
    <g>
      <path   d="M2761.11,1555.5h-7.66a3.52,3.52,0,0,1,0-7h7.66A3.52,3.52,0,0,1,2761.11,1555.5Z" transform="translate(-2743.94 -1505.2)"/>
      <path   d="M2761.11,1611.5h-7.66a3,3,0,1,1,0-6h7.66A3,3,0,1,1,2761.11,1611.5Z" transform="translate(-2743.94 -1505.2)"/>
      <path   d="M2757.15,1611.69a3,3,0,0,1-3-3.13v-56.72a3,3,0,1,1,6,0v56.72A3,3,0,0,1,2757.15,1611.69Z" transform="translate(-2743.94 -1505.2)"/>
    </g>
  </g>
</svg>
