<svg id="Слой_1" data-name="Слой 1" xmlns="http://www.w3.org/2000/svg" xmlns:xlink="http://www.w3.org/1999/xlink" viewBox="0 0 70 70">
  <defs>
    <style>
      .cls-1, .cls-2 {
        fill: none;
      }

      .cls-2 {
        clip-rule: evenodd;
      }

      .cls-3 {
        clip-path: url(#clip-path);
      }

      .cls-4 {
        clip-path: url(#clip-path-2);
      }

      .cls-5 {
        fill: #fff;
      }

      .cls-6 {
        clip-path: url(#clip-path-3);
      }

      .cls-7 {
        fill: #507299;
      }
    </style>
    <clipPath id="clip-path" transform="translate(5 5)">
      <circle class="cls-1" cx="30" cy="31.03" r="21.72"/>
    </clipPath>
    <clipPath id="clip-path-2" transform="translate(5 5)">
      <rect class="cls-1" x="-203" y="-327" width="375" height="667"/>
    </clipPath>
    <clipPath id="clip-path-3" transform="translate(5 5)">
      <path class="cls-2" d="M41.54,33.85a27.48,27.48,0,0,1,3.31,3.83l0,0.06a1.11,1.11,0,0,1,.2,1.05,1.76,1.76,0,0,1-1.23.66H39.16a3.28,3.28,0,0,1-1.83-.65,11.45,11.45,0,0,1-1.87-1.88c-0.91-1.06-1.7-2-2.49-2a1,1,0,0,0-.3,0c-0.6.19-1.37,1-1.37,3.33a1.08,1.08,0,0,1-1,1.12H28.2a11.58,11.58,0,0,1-7.92-3.82c-4.13-4.36-7.85-13.1-7.88-13.18-0.23-.57.25-0.87,0.78-0.87h4.73a1,1,0,0,1,1,.72,31.87,31.87,0,0,0,1.8,3.75c1.65,2.89,2.66,4.07,3.47,4.07A0.94,0.94,0,0,0,24.6,30c1.06-.59.86-4.35,0.81-5.13a5,5,0,0,0-.54-2.42,2.31,2.31,0,0,0-1.45-.81A1.72,1.72,0,0,1,24,21.12a8.67,8.67,0,0,1,3.33-.42h0.72a8,8,0,0,1,2.28.24c1,0.25,1.05.91,1,3.19,0,0.65-.06,1.38-0.06,2.24,0,0.19,0,.39,0,0.6,0,1.16-.07,2.48.75,3a0.68,0.68,0,0,0,.36.1c0.28,0,1.14,0,3.46-4a30.37,30.37,0,0,0,1.86-4A1.26,1.26,0,0,1,38,21.71a0.83,0.83,0,0,1,.39-0.09H44a1.16,1.16,0,0,1,1.1.32c0.14,0.37,0,1.51-2.57,4.95l-1.13,1.5C39.09,31.4,39.09,31.56,41.54,33.85ZM30,0A30,30,0,1,0,60,30,30,30,0,0,0,30,0Z"/>
    </clipPath>
  </defs>
  <title>icon-vk@round</title>
  <g class="cls-3">
    <g class="cls-4">
      <rect class="cls-5" x="8.28" y="9.31" width="53.45" height="53.45"/>
    </g>
  </g>
  <g class="cls-6">
    <g class="cls-4">
      <rect class="cls-7" width="70" height="70"/>
    </g>
  </g>
</svg>
