<svg id="Слой_1" data-name="Слой 1" xmlns="http://www.w3.org/2000/svg" xmlns:xlink="http://www.w3.org/1999/xlink" viewBox="0 0 100.15 85.85">
	<path d="M90.2,13.48c-9.7-9.71-18.66,1.43-18.66,1.43L50.45,36l8.61,8.62Z"/>
	<path d="M41,33A12.12,12.12,0,0,0,37.9,21.29l-0.47-.47L17.19,0.57,14.11,3.66,27.49,17a2.76,2.76,0,0,1-3.9,3.9L10.21,7.55,7,10.74,20.41,24.12a2.76,2.76,0,1,1-3.9,3.9L3.13,14.64,0,17.72,20.76,38.43a12.09,12.09,0,0,0,11.67,3.14l6.23,6.23L20.43,66A6.09,6.09,0,1,0,29,74.64L47.27,56.41l18.2,18.2A6.09,6.09,0,0,0,74.09,66Z"/>
</svg>
