<svg id="Layer_1" data-name="Layer 1" xmlns="http://www.w3.org/2000/svg" viewBox="0 0 17.17 17.17">
  <defs>
    <style>
      .cls-1 {
        fill: #fff;
      }
    </style>
  </defs>
  <title>icon-map</title>
  <g>
    <path class="cls-1" d="M-57.69,60.08a3.84,3.84,0,0,0-.47,0v1.1a2.65,2.65,0,0,1,.47-0.05,3.18,3.18,0,0,1,.54.05v-1.1A4.32,4.32,0,0,0-57.69,60.08Z" transform="translate(63.57 -55.14)"/>
    <path class="cls-1" d="M-46.65,55.26h0l0,0h0l0,0h0l-0.1-.06v0a0.61,0.61,0,0,0-.47.06l-5,3-5-3a0.63,0.63,0,0,0-.62,0l-5.32,3.19a0.61,0.61,0,0,0-.29.52V71.7a0.61,0.61,0,0,0,.31.53,0.61,0.61,0,0,0,.3.08,0.61,0.61,0,0,0,.31-0.09l5-3,5,3a0.62,0.62,0,0,0,.62,0L-46.7,69a0.61,0.61,0,0,0,.29-0.52V55.75A0.61,0.61,0,0,0-46.65,55.26Zm-1,12.9-4.19,2.54V68.49c-0.15,0-.29,0-0.45,0a5.84,5.84,0,0,1-.62-0.06v2.15l-4.27-2.47V62.45a1.69,1.69,0,0,0-.54-0.08,1.35,1.35,0,0,0-.47.07v5.62l-4.2,2.56V59.28l4.2-2.56V58.9l0.47,0a5.45,5.45,0,0,1,.54.05V56.81l4.27,2.46V65a2.28,2.28,0,0,0,.62.08,1.82,1.82,0,0,0,.45,0V59.36l4.19-2.54V68.16Z" transform="translate(63.57 -55.14)"/>
    <path class="cls-1" d="M-52.25,66.23a3.64,3.64,0,0,1-.62-0.05v1.1a4.73,4.73,0,0,0,.62.05,4.16,4.16,0,0,0,.45,0v-1.1A3,3,0,0,1-52.25,66.23Z" transform="translate(63.57 -55.14)"/>
  </g>
  <path class="cls-1" d="M-49.12,63.7a0.55,0.55,0,0,0-.55-0.55,0.55,0.55,0,0,0-.55.55v1c0,0.16-.12,1.56-2,1.56-2.1,0-2.18-1.42-2.19-1.57V62.84a2.93,2.93,0,0,0-3.25-2.77,3,3,0,0,0-3.17,3v3.27a0.55,0.55,0,0,0,.55.55,0.55,0.55,0,0,0,.55-0.55V63.07a1.91,1.91,0,0,1,2.08-1.9c2,0,2.15,1.52,2.15,1.68v1.81c0,0.92.69,2.67,3.29,2.67a2.81,2.81,0,0,0,3.13-2.65v-1Z" transform="translate(63.57 -55.14)"/>
  <g>
    <circle class="cls-1" cx="13.9" cy="5.73" r="0.64"/>
    <path class="cls-1" d="M-49.67,61.69a0.82,0.82,0,0,1-.82-0.82,0.82,0.82,0,0,1,.82-0.82,0.82,0.82,0,0,1,.82.82A0.82,0.82,0,0,1-49.67,61.69Zm0-1.29a0.47,0.47,0,0,0-.47.47,0.47,0.47,0,0,0,.47.47,0.47,0.47,0,0,0,.47-0.47A0.47,0.47,0,0,0-49.67,60.4Z" transform="translate(63.57 -55.14)"/>
  </g>
</svg>
