<svg id="Layer_1" data-name="Layer 1" xmlns="http://www.w3.org/2000/svg" viewBox="0 0 17.47 15.66">
  <defs>
    <style>
      .cls-1 {
        fill: #fff;
      }
    </style>
  </defs>
  <title>icon-cart</title>
  <path class="cls-1" d="M113.06,36.93l-2.85-2.85a0.7,0.7,0,0,0-.5-0.21H96.51a0.71,0.71,0,0,0-.5,1.21l2.35,2.35L96,39.78a0.7,0.7,0,0,0-.15.77,0.7,0.7,0,0,0,.65.43H102v7.84a0.71,0.71,0,0,0,.71.71h3.56a0.71,0.71,0,0,0,.71-0.71V41h2.69a0.7,0.7,0,0,0,.5-0.21l2.85-2.85A0.71,0.71,0,0,0,113.06,36.93ZM103.46,41h2.15v7.14h-2.15V41Zm2.86-1.41h-8.1l1.64-1.64a0.71,0.71,0,0,0,0-1l-1.64-1.64h11.21l2.14,2.14-2.14,2.14h-3.1Z" transform="translate(-95.8 -33.88)"/>
</svg>
