<svg id="Layer_1" data-name="Layer 1" xmlns="http://www.w3.org/2000/svg" viewBox="0 0 43.72 38.01">
  <title>icon-like</title>
  <path d="M60.76,69.21H42.52A1.5,1.5,0,0,1,42,69.13c-3.53-1.22-3.53-2.61-3.53-3.07V49.29a1.5,1.5,0,0,1,.44-1.06c2-2,5.94-6.42,6.28-7.58,0.17-.59.32-1.26,0.47-2,0.55-2.57,1.3-6.09,4.56-6.09A4.53,4.53,0,0,1,54,35a12.26,12.26,0,0,1,.84,9.57h8a5.26,5.26,0,0,1,4.82,3.25,5.21,5.21,0,0,1-.21,4.54A4.21,4.21,0,0,1,68,55.68a4.32,4.32,0,0,1-1.4,2.45,5,5,0,0,1-.06,3A5.21,5.21,0,0,1,65,63.57a4.58,4.58,0,0,1-.32,2.33C64,67.55,62.48,69.21,60.76,69.21Zm-18-3h18A2.79,2.79,0,0,0,62,64.52a0.83,0.83,0,0,0,0-.67,1.5,1.5,0,0,1-.32-1.75,1.52,1.52,0,0,1,1.44-.84,2.47,2.47,0,0,0,.72-1.6,1.12,1.12,0,0,0-.35-1,1.5,1.5,0,0,1,1.07-2.72h0a1,1,0,0,0,.56-0.83,1,1,0,0,0-.26-1.1,1.5,1.5,0,0,1-.47-2.42,2.31,2.31,0,0,0-1.53-4H52.68a1.5,1.5,0,0,1-1.34-2.17c1.64-3.31,1.32-6.94.16-8.82a1.76,1.76,0,0,0-1.25-1c-0.78,0-1.18,1.61-1.63,3.72-0.15.73-.31,1.49-0.52,2.19-0.63,2.14-5.15,6.92-6.6,8.41V65.6A8,8,0,0,0,42.78,66.21Z" transform="translate(-24.43 -32.59)"/>
  <path d="M38.44,70.6H27.49a3.07,3.07,0,0,1-3.06-3.06v-21a3.07,3.07,0,0,1,3.06-3.06H38.43a3.07,3.07,0,0,1,3.06,3.06v21A3.07,3.07,0,0,1,38.44,70.6ZM27.49,46.45L27.43,67.54l11,0.06a0.06,0.06,0,0,0,.06-0.06v-21Z" transform="translate(-24.43 -32.59)"/>
</svg>
