<svg id="Слой_1" data-name="Слой 1" xmlns="http://www.w3.org/2000/svg" xmlns:xlink="http://www.w3.org/1999/xlink" viewBox="0 0 30.15 30.12">
	<path d="M17.91,5.61L16.07,7.45l1.23,5,0.12-.11c1.16-.79,1.46.12,1.46,0.12,0.2,0.91-1.13,2.05-1.13,2.05l0.67,3.28L17,19.37l-3.87-9L13,10.51,8.79,14.76,9,19.26,7.6,20.56l-2-5-0.1-.09-5-2L1.73,12l4.5,0.18L10.49,8l0.11-.11L1.63,4,3.16,2.57,6.44,3.24S7.58,1.92,8.49,2.12c0,0,.91.3,0.12,1.46L8.51,3.7l5,1.23L15.39,3.1l1.76,1.76Zm0.71-.71,1-1A3.31,3.31,0,0,0,20.48.73l-0.21-.2a3.31,3.31,0,0,0-3.13.82l-1,1,1.76,1.76Z"/>
</svg>
