<svg id="Layer_1" data-name="Layer 1" xmlns="http://www.w3.org/2000/svg" viewBox="0 0 68.63 62.6">
  <title>icon-theatre</title>
  <path   d="M65.14,64.4a5.91,5.91,0,0,1-9.37-1.65,1.81,1.81,0,0,0-3.23,1.63A9.53,9.53,0,0,0,67.61,67,1.81,1.81,0,0,0,65.14,64.4Zm5.27-15A6.17,6.17,0,0,0,65.07,51a1.81,1.81,0,0,0,2.48,2.63,2.58,2.58,0,0,1,4.09.72,1.81,1.81,0,1,0,3.23-1.63A6.15,6.15,0,0,0,70.41,49.41Zm8.32-11.53a42,42,0,0,0-13-4.33,48.37,48.37,0,0,0-9-.75l-1.6-9.1c-0.61-3.47-5.28-5.46-12.8-5.46a48.86,48.86,0,0,0-8.44.77,42,42,0,0,0-13,4.32c-5,2.84-5.68,5.56-5.36,7.35L18.47,47c1.61,9.13,10.68,19.29,21.11,19.29h0a15.35,15.35,0,0,0,2.65-.23l0.4-.08c2.53,7.79,8.2,13.45,14.81,14.61a15.66,15.66,0,0,0,2.72.24c10.13,0,19.36-9.72,21.05-19.3L84.1,45.21C84.41,43.43,83.74,40.71,78.73,37.88ZM41.8,63.32a12.26,12.26,0,0,1-2.11.18h0c-8.73,0-16.83-8.95-18.24-16.95l-3-17c-0.09-.5.58-1.92,3.73-3.7a39.81,39.81,0,0,1,12.29-4.06,47,47,0,0,1,8.12-.75c6.24,0,9.42,1.53,9.6,2.56l3,17C56.75,49.49,50.88,61.71,41.8,63.32Zm36.36-2.26c-1.56,8.85-11.23,18.28-20.26,16.7-6.14-1.08-10.51-6.87-12.41-12.6,5.43-2.5,9.4-7.82,11.35-13.73a2.57,2.57,0,0,1,.14.22,1.87,1.87,0,1,0,3.34-1.69,6.46,6.46,0,0,0-2.47-2.63,23.53,23.53,0,0,0,0-7.87L57.2,35.69a46.9,46.9,0,0,1,8,.74,39.67,39.67,0,0,1,12.24,4c3.14,1.78,3.8,3.19,3.72,3.68ZM48.81,34.41a1.81,1.81,0,0,0-2.28-1.15c-1.89.63-3.42,0.32-4.41-.87a1.81,1.81,0,0,0-2.78,2.31,6.8,6.8,0,0,0,5.38,2.5,9.41,9.41,0,0,0,2.94-.5A1.81,1.81,0,0,0,48.81,34.41ZM34.23,35.6a1.81,1.81,0,0,0-3.4-1.22C30.31,35.84,29,36.64,27,36.7A1.81,1.81,0,0,0,27,40.32h0.06C30.59,40.21,33.19,38.49,34.23,35.6Zm4.49,10.5a9.49,9.49,0,0,0-6.87,5.12,1.81,1.81,0,1,0,3.23,1.63,5.92,5.92,0,0,1,9.37-1.65,1.81,1.81,0,0,0,2.47-2.64A9.49,9.49,0,0,0,38.72,46.1Z" transform="translate(-15.53 -18.25)"/>
</svg>
