<svg xmlns="http://www.w3.org/2000/svg" xmlns:xlink="http://www.w3.org/1999/xlink" preserveAspectRatio="xMidYMid" width="14" height="14" viewBox="0 0 14 14">
  <path d="M7.000,14.000 C3.140,14.000 -0.000,10.860 -0.000,7.000 C-0.000,3.141 3.140,-0.000 7.000,-0.000 C10.860,-0.000 14.000,3.141 14.000,7.000 C14.000,10.860 10.860,14.000 7.000,14.000 ZM7.000,0.875 C3.623,0.875 0.875,3.623 0.875,7.000 C0.875,10.377 3.623,13.125 7.000,13.125 C10.377,13.125 13.125,10.377 13.125,7.000 C13.125,3.623 10.377,0.875 7.000,0.875 ZM9.697,10.134 C9.585,10.134 9.473,10.091 9.387,10.006 L6.691,7.309 C6.609,7.227 6.563,7.116 6.563,7.000 L6.563,2.096 C6.563,1.854 6.758,1.658 7.000,1.658 C7.242,1.658 7.438,1.854 7.438,2.096 L7.438,6.819 L10.006,9.388 C10.177,9.559 10.177,9.835 10.006,10.006 C9.921,10.091 9.809,10.134 9.697,10.134 Z"/>
</svg>
