<svg id="Слой_1" data-name="Слой 1" xmlns="http://www.w3.org/2000/svg" xmlns:xlink="http://www.w3.org/1999/xlink" viewBox="0 0 60 60">
  <defs>
    <style>
      .cls-1, .cls-2 {
        fill: none;
      }

      .cls-2 {
        clip-rule: evenodd;
      }

      .cls-3 {
        clip-path: url(#clip-path);
      }

      .cls-4 {
        clip-path: url(#clip-path-2);
      }

      .cls-5 {
        fill: #fff;
      }

      .cls-6 {
        clip-path: url(#clip-path-3);
      }

      .cls-7 {
        fill: #00aced;
      }
    </style>
    <clipPath id="clip-path">
      <circle class="cls-1" cx="35" cy="30" r="21"/>
    </clipPath>
    <clipPath id="clip-path-2">
      <rect class="cls-1" x="-283" y="-327" width="375" height="667"/>
    </clipPath>
    <clipPath id="clip-path-3">
      <path class="cls-2" d="M42.2,24.58c0,0.26,0,.51,0,0.76,0,7.81-5.94,16.82-16.81,16.82a16.67,16.67,0,0,1-9.06-2.66,11.62,11.62,0,0,0,1.41.08A11.83,11.83,0,0,0,25.1,37a5.92,5.92,0,0,1-5.52-4.1,6.15,6.15,0,0,0,1.11.1,5.94,5.94,0,0,0,1.56-.21A5.91,5.91,0,0,1,17.51,27V27a5.93,5.93,0,0,0,2.68.74,5.92,5.92,0,0,1-1.83-7.89A16.8,16.8,0,0,0,30.53,26a5.82,5.82,0,0,1-.15-1.35,5.91,5.91,0,0,1,10.22-4,11.87,11.87,0,0,0,3.75-1.43,5.94,5.94,0,0,1-2.6,3.27,11.87,11.87,0,0,0,3.39-.93A12,12,0,0,1,42.2,24.58ZM30,0A30,30,0,1,0,60,30,30,30,0,0,0,30,0Z"/>
    </clipPath>
  </defs>
  <title>icon-twitter@round</title>
  <g class="cls-3">
    <g class="cls-4">
      <rect class="cls-5" x="9" y="4" width="52" height="52"/>
    </g>
  </g>
  <g class="cls-6">
    <g class="cls-4">
      <rect class="cls-7" x="-5" y="-5" width="70" height="70"/>
    </g>
  </g>
</svg>
