<svg xmlns="http://www.w3.org/2000/svg" xmlns:xlink="http://www.w3.org/1999/xlink" preserveAspectRatio="xMidYMid" width="11.844" height="15.938" viewBox="0 0 11.844 15.938">
  <path d="M5.920,15.928 C5.920,15.928 -0.004,9.272 -0.004,5.973 C-0.004,2.675 2.648,-0.000 5.920,-0.000 C9.191,-0.000 11.844,2.675 11.844,5.973 C11.844,9.272 5.920,15.928 5.920,15.928 ZM5.920,1.991 C3.739,1.991 1.971,3.774 1.971,5.973 C1.971,8.172 3.739,9.955 5.920,9.955 C8.101,9.955 9.869,8.172 9.869,5.973 C9.869,3.774 8.101,1.991 5.920,1.991 ZM7.895,6.719 L6.660,6.719 L6.660,7.964 C6.660,8.376 6.329,8.711 5.920,8.711 C5.511,8.711 5.179,8.376 5.179,7.964 L5.179,6.719 L3.945,6.719 C3.536,6.719 3.205,6.385 3.205,5.973 C3.205,5.560 3.536,5.226 3.945,5.226 L5.179,5.226 L5.179,3.982 C5.179,3.569 5.511,3.235 5.920,3.235 C6.329,3.235 6.660,3.569 6.660,3.982 L6.660,5.226 L7.895,5.226 C8.304,5.226 8.635,5.560 8.635,5.973 C8.635,6.385 8.304,6.719 7.895,6.719 Z"/>
</svg>
