<svg id="Слой_1" data-name="Слой 1" xmlns="http://www.w3.org/2000/svg" xmlns:xlink="http://www.w3.org/1999/xlink" viewBox="0 0 64 92">
  <defs>
    <style>
      .cls-1 {
        fill: none;
        clip-rule: evenodd;
      }

      .cls-2 {
        clip-path: url(#clip-path);
      }

      .cls-3 {
        clip-path: url(#clip-path-2);
      }

      .cls-4 {
        clip-path: url(#clip-path-3);
      }
    </style>
    <clipPath id="clip-path">
      <path class="cls-1" d="M32,46A16.5,16.5,0,1,1,48.5,29.5,16.52,16.52,0,0,1,32,46ZM32,2.8h0A28.77,28.77,0,0,0,7.1,46L32,89.2,56.9,46A28.77,28.77,0,0,0,32,2.8Z"/>
    </clipPath>
    <clipPath id="clip-path-2">
      <path class="cls-1" d="M32,0.3A31.51,31.51,0,0,0,3.1,19.7C-1,29.4.6,39.7,5.7,48.6c8,13.9,16.1,27.9,24.1,41.8a2.53,2.53,0,0,0,4.3,0Q46.1,69.7,58,48.9c5.2-9,6.8-18.8,3.1-28.7C56.6,8.1,44.8.6,32,.3c-3.2-.1-3.2,4.9,0,5A26.67,26.67,0,0,1,58.2,29c0.9,8.1-2.8,14.7-6.7,21.3-7.2,12.5-14.4,25-21.7,37.5h4.3c-7.2-12.5-14.4-25-21.7-37.5C8.5,43.5,5.1,37.2,5.7,29,6.7,15.7,18.9,5.3,32,5.3,35.2,5.3,35.2.3,32,.3Z"/>
    </clipPath>
    <clipPath id="clip-path-3">
      <path class="cls-1" d="M32,43.5c-18.1-.7-18.1-27.3,0-28,7.9-.3,13.7,6.6,14,14,0.3,7.9-6.6,13.7-14,14-3.2.1-3.2,5.1,0,5a19.39,19.39,0,0,0,19-19c0.4-10.6-9-18.6-19-19-10.6-.4-18.6,9-19,19-0.4,10.6,9,18.6,19,19C35.2,48.6,35.2,43.6,32,43.5Z"/>
    </clipPath>
  </defs>
  <title>icon-mark</title>
  <g class="cls-2">
    <rect x="-1.82" y="-2.2" width="67.64" height="96.4"/>
  </g>
  <g class="cls-3">
    <rect x="-4.23" y="-4.7" width="72.34" height="101.3"/>
  </g>
  <g class="cls-4">
    <rect x="7.99" y="5.49" width="48.02" height="48.01"/>
  </g>
</svg>
