<svg id="Layer_1" data-name="Layer 1" xmlns="http://www.w3.org/2000/svg" viewBox="0 0 176.54 100.19">
  <title>icon-education</title>
  <g>
    <path   d="M3292.37,1630.21a1.55,1.55,0,0,1-1.5-1.74V1554a1.52,1.52,0,1,1,3,0v74.47A1.55,1.55,0,0,1,3292.37,1630.21Z" transform="translate(-3218.33 -1543.91)"/>
    <path   d="M3356.84,1633.09H3227.73a1.52,1.52,0,1,1,0-3h129.11A1.52,1.52,0,1,1,3356.84,1633.09Z" transform="translate(-3218.33 -1543.91)"/>
    <path   d="M3356.84,1633.09H3227.73a1.65,1.65,0,0,1-1.86-1.49v-74.47a2,2,0,0,1,4,0v73h125v-73a2,2,0,0,1,4,0v74.47C3358.87,1632.56,3357.8,1633.09,3356.84,1633.09Z" transform="translate(-3218.33 -1543.91)"/>
    <path   d="M3292.11,1632.34c-0.35,0-.7.89-1,0.69-12.54-8.78-27.06-11.46-43.15-8-12.11,2.63-19.22,8-19.3,8a1.74,1.74,0,0,1-1.87-2.94c0.36-.23,7.88-5.68,20.56-8.45,11.13-2.43,27.52-3.12,43.52,6.69V1554a1.52,1.52,0,1,1,3,0v77.6a1.75,1.75,0,0,1-.95,1.54C3292.67,1633.28,3292.38,1632.34,3292.11,1632.34Z" transform="translate(-3218.33 -1543.91)"/>
    <path   d="M3356.84,1633.34a1.74,1.74,0,0,1-.88-0.24c-18.92-11-34.25-10.46-44.66-8a51,51,0,0,0-18.12,7.9c0.53-.41-3.14-1.21-2.44-0.3a1.74,1.74,0,0,1,.31-2.44c0.3-.23,7.48-5.75,19.46-8.54,11-2.57,27.3-3.2,47.21,8.41A1.74,1.74,0,0,1,3356.84,1633.34Z" transform="translate(-3218.33 -1543.91)"/>
    <path   d="M3363.1,1554H3360a3.13,3.13,0,0,0-1.84-2.85,76.09,76.09,0,0,0-32.62-7.24,86.41,86.41,0,0,0-33.43,6.66,80.79,80.79,0,0,0-32.34-6.66c-20,0-32.82,7-33.42,7.29a3.13,3.13,0,0,0-1.73,2.8h-3.13a3.13,3.13,0,0,0-3.13,3.13v80.74a3.13,3.13,0,0,0,3.13,3.13H3363.1a3.13,3.13,0,0,0,3.13-3.13v-80.74A3.13,3.13,0,0,0,3363.1,1554Zm-3.13,80.73H3224.6v-74.47h3.13a3.11,3.11,0,0,0,1.74-.53v-3.12l1.89-.79h0a72.83,72.83,0,0,1,28.39-5.66,74.58,74.58,0,0,1,31.07,6.68,3.14,3.14,0,0,0,2.69,0,79.33,79.33,0,0,1,32-6.63,69.54,69.54,0,0,1,27.67,5.66h0l1.91,0.79v3.12a3.11,3.11,0,0,0,1.74.53H3360v74.47Z" transform="translate(-3218.33 -1543.91)"/>
    <path   d="M3301.51,1644.09h-18.79c-1.73,0-2.84-.67-2.84-2.4v-3.13a3.22,3.22,0,0,1,3-3.37,3.34,3.34,0,0,1,3,2.9h12.53a3.65,3.65,0,0,1,3.25-2.9,3.44,3.44,0,0,1,3.25,3.37v3.13C3304.87,1643.42,3303.24,1644.09,3301.51,1644.09Z" transform="translate(-3218.33 -1543.91)"/>
    <g>
      <path   d="M3391.65,1598.42a1.37,1.37,0,0,1-.62-0.15l-5.31-2.66-5.31,2.66a1.39,1.39,0,1,1-1.24-2.49l5.93-3a1.39,1.39,0,0,1,1.25,0l5.93,3A1.39,1.39,0,0,1,3391.65,1598.42Z" transform="translate(-3218.33 -1543.91)"/>
      <path   d="M3391.64,1634.09h-11.83a1.5,1.5,0,0,1,0-3h11.83A1.5,1.5,0,0,1,3391.64,1634.09Z" transform="translate(-3218.33 -1543.91)"/>
      <path   d="M3392,1641.09h-12.53a2.65,2.65,0,0,1-2.58-2.53v-43.85a3.05,3.05,0,0,1,0-1.23l6.91-12.39a2.28,2.28,0,0,1,2.07-1.35,2.36,2.36,0,0,1,2.13,1.35l6.46,12.53a2.74,2.74,0,0,1,.46,1.09v43.85A2.94,2.94,0,0,1,3392,1641.09Zm-10.11-5h8v-40.8l-4-7.66-4,7.66v40.8Z" transform="translate(-3218.33 -1543.91)"/>
    </g>
  </g>
</svg>
