<svg id="Layer_1" data-name="Layer 1" xmlns="http://www.w3.org/2000/svg" viewBox="0 0 158.71 122.15">
  <title>icon-sports</title>
  <g>
    <path   d="M1998.71,773.08A49.09,49.09,0,1,1,2047.8,724,49.14,49.14,0,0,1,1998.71,773.08Zm0-91.91A42.83,42.83,0,1,0,2041.54,724,42.87,42.87,0,0,0,1998.71,681.17Z" transform="translate(-1889.09 -674.9)"/>
    <path   d="M1998.71,743.88a1.73,1.73,0,0,1-.87-0.23l-15.71-9.07a1.74,1.74,0,0,1-.87-1.51V714.92a1.74,1.74,0,0,1,.87-1.51l15.71-9.07a1.74,1.74,0,0,1,1.74,0l15.71,9.07a1.74,1.74,0,0,1,.87,1.51v18.14a1.74,1.74,0,0,1-.87,1.51l-15.71,9.07A1.73,1.73,0,0,1,1998.71,743.88Zm-14-11.81,14,8.07,14-8.07V715.93l-14-8.07-14,8.07v16.13Z" transform="translate(-1889.09 -674.9)"/>
    <path   d="M1998.71,691.27a1.74,1.74,0,0,1-1-.29L1983,681.13a1.74,1.74,0,0,1,1.93-2.9l13.81,9.2,13.81-9.2a1.74,1.74,0,1,1,1.93,2.9L1999.68,691A1.74,1.74,0,0,1,1998.71,691.27Z" transform="translate(-1889.09 -674.9)"/>
    <path   d="M2013.48,770a1.74,1.74,0,0,1-1-.29l-13.81-9.2-13.81,9.2a1.74,1.74,0,0,1-1.93-2.9l14.77-9.85a1.74,1.74,0,0,1,1.93,0l14.77,9.85A1.74,1.74,0,0,1,2013.48,770Z" transform="translate(-1889.09 -674.9)"/>
    <path   d="M2044.48,716.37a1.74,1.74,0,0,1-.77-0.18l-15.91-7.87a1.74,1.74,0,0,1-1-1.67l1.14-17.72a1.74,1.74,0,1,1,3.47.22l-1.07,16.56,14.88,7.35A1.74,1.74,0,0,1,2044.48,716.37Z" transform="translate(-1889.09 -674.9)"/>
    <path   d="M1967.72,760.68h-0.11a1.74,1.74,0,0,1-1.62-1.85l1.07-16.56-14.87-7.35a1.74,1.74,0,0,1,1.54-3.12l15.91,7.87a1.74,1.74,0,0,1,1,1.67l-1.14,17.72A1.74,1.74,0,0,1,1967.72,760.68Z" transform="translate(-1889.09 -674.9)"/>
    <path   d="M1953,716.37a1.74,1.74,0,0,1-.77-3.3l14.87-7.35L1966,689.16a1.74,1.74,0,1,1,3.47-.22l1.14,17.72a1.74,1.74,0,0,1-1,1.67l-15.91,7.87A1.73,1.73,0,0,1,1953,716.37Z" transform="translate(-1889.09 -674.9)"/>
    <path   d="M2029.71,760.68a1.74,1.74,0,0,1-1.74-1.63l-1.14-17.72a1.74,1.74,0,0,1,1-1.67l15.91-7.87a1.74,1.74,0,1,1,1.54,3.12l-14.87,7.35,1.07,16.56a1.74,1.74,0,0,1-1.62,1.85h-0.11Z" transform="translate(-1889.09 -674.9)"/>
    <path   d="M1983,716.66a1.73,1.73,0,0,1-.87-0.23L1968,708.27a1.74,1.74,0,0,1,1.74-3l14.14,8.16A1.74,1.74,0,0,1,1983,716.66Z" transform="translate(-1889.09 -674.9)"/>
    <path   d="M1998.71,707.59a1.74,1.74,0,0,1-1.74-1.74V689.53a1.74,1.74,0,0,1,3.48,0v16.33A1.74,1.74,0,0,1,1998.71,707.59Z" transform="translate(-1889.09 -674.9)"/>
    <path   d="M2014.43,716.66a1.74,1.74,0,0,1-.87-3.25l14.14-8.16a1.74,1.74,0,1,1,1.74,3l-14.14,8.16A1.74,1.74,0,0,1,2014.43,716.66Z" transform="translate(-1889.09 -674.9)"/>
    <path   d="M1998.71,760.2a1.74,1.74,0,0,1-1.74-1.74V742.13a1.74,1.74,0,0,1,3.48,0v16.33A1.74,1.74,0,0,1,1998.71,760.2Z" transform="translate(-1889.09 -674.9)"/>
    <path   d="M2028.56,743a1.74,1.74,0,0,1-.87-0.23l-14.14-8.16a1.74,1.74,0,0,1,1.74-3l14.14,8.16A1.74,1.74,0,0,1,2028.56,743Z" transform="translate(-1889.09 -674.9)"/>
    <path   d="M1968.86,743a1.74,1.74,0,0,1-.87-3.25l14.14-8.16a1.74,1.74,0,1,1,1.74,3l-14.14,8.16A1.73,1.73,0,0,1,1968.86,743Z" transform="translate(-1889.09 -674.9)"/>
    <g>
      <path   d="M1966.5,796.26a17.46,17.46,0,0,1-7.42-2l-65.19-35.12a8.45,8.45,0,0,1-4.8-7.92,10.41,10.41,0,0,1,1.13-4.35l4.21-7.82c5.57-10.33,10.09-14.94,14.66-14.94a6.74,6.74,0,0,1,3.22.83,6,6,0,0,1,2.48,8.26c-1.25,2.32,3.7,5.16,3.75,5.19a15.56,15.56,0,0,0,6.29,1.62,6.13,6.13,0,0,0,3.65-1,7.68,7.68,0,0,1,4.48-1.48c5.8,0,9.8,6.87,10.46,8.08A108.89,108.89,0,0,0,1966,771.4c3,2.59,5.29,4.63,6.74,6.68A13.67,13.67,0,0,1,1974,792,8.07,8.07,0,0,1,1966.5,796.26Zm-70.75-46.42a2.57,2.57,0,0,0,1.12,3.81l65.19,35.12a11.27,11.27,0,0,0,4.44,1.23,1.84,1.84,0,0,0,1.93-.94,7.42,7.42,0,0,0-.79-7.37,40.71,40.71,0,0,0-5.74-5.57,114.46,114.46,0,0,1-23.84-27.28l-0.11-.19c-1.07-2-3.46-4.86-5-4.86a1.47,1.47,0,0,0-.87.34,12.34,12.34,0,0,1-7.25,2.16h0a21.44,21.44,0,0,1-9.27-2.37,18.82,18.82,0,0,1-4.36-3.37c-3-3.16-3.7-6.85-2-10.14h-0.1c-0.12,0-2.95.13-9.15,11.65Z" transform="translate(-1889.09 -674.9)"/>
      <path   d="M1916.25,769.38a1.74,1.74,0,0,1-1.12-3.08l24.48-20.46a1.74,1.74,0,1,1,2.23,2.67L1917.36,769A1.73,1.73,0,0,1,1916.25,769.38Z" transform="translate(-1889.09 -674.9)"/>
      <path   d="M1926.68,775a1.74,1.74,0,0,1-1.12-3.08l20-16.68a1.74,1.74,0,1,1,2.23,2.67l-20,16.68A1.73,1.73,0,0,1,1926.68,775Z" transform="translate(-1889.09 -674.9)"/>
      <path   d="M1937.11,780.61a1.74,1.74,0,0,1-1.12-3.08l16.73-14a1.74,1.74,0,1,1,2.23,2.67l-16.73,14A1.73,1.73,0,0,1,1937.11,780.61Z" transform="translate(-1889.09 -674.9)"/>
      <path   d="M1929.08,784.41a3.13,3.13,0,0,1-2.75-4.62l2.81-5.21a3.13,3.13,0,0,1,5.52,3l-2.81,5.21A3.13,3.13,0,0,1,1929.08,784.41Z" transform="translate(-1889.09 -674.9)"/>
      <path   d="M1941.25,791a3.13,3.13,0,0,1-2.75-4.62l2.81-5.21a3.13,3.13,0,0,1,5.51,3l-2.81,5.21A3.13,3.13,0,0,1,1941.25,791Z" transform="translate(-1889.09 -674.9)"/>
      <path   d="M1897.79,767.55a3.13,3.13,0,0,1-2.75-4.62l2.81-5.21a3.13,3.13,0,0,1,5.52,3l-2.81,5.21A3.13,3.13,0,0,1,1897.79,767.55Z" transform="translate(-1889.09 -674.9)"/>
      <path   d="M1908.22,773.17a3.13,3.13,0,0,1-2.75-4.62l2.81-5.21a3.13,3.13,0,0,1,5.52,3l-2.81,5.22A3.13,3.13,0,0,1,1908.22,773.17Z" transform="translate(-1889.09 -674.9)"/>
      <path   d="M1952.55,797.05a3.13,3.13,0,0,1-2.75-4.62l2.81-5.21a3.13,3.13,0,1,1,5.51,3l-2.81,5.21A3.13,3.13,0,0,1,1952.55,797.05Z" transform="translate(-1889.09 -674.9)"/>
    </g>
  </g>
</svg>
