<svg id="Layer_1" data-name="Layer 1" xmlns="http://www.w3.org/2000/svg" xmlns:xlink="http://www.w3.org/1999/xlink" width="32" height="32" viewBox="0 0 32 32">
	<path d="M29.945 18.445l-1.141-1.225c0.001-0.011 0.001-0.021-0-0.037 0.024-0.273 0.041-0.549 0.052-0.824 0.003-0.079-0.001-0.165 0.001-0.244 0.002-0.211-0.001-0.415-0.010-0.62-0.004-0.089-0.009-0.172-0.015-0.261-0.005-0.136-0.012-0.271-0.022-0.413l1.144-1.217c0.546-0.581 1.537-1.353 1.233-2.088l-1.253-3.039c-0.303-0.736-1.549-0.581-2.345-0.609l-1.67-0.060c-0.126-0.151-0.262-0.295-0.393-0.44-0.005-0.005-0.011-0.014-0.017-0.022-0.047-0.049-0.086-0.102-0.133-0.15-0.071-0.077-0.152-0.151-0.225-0.226-0.106-0.106-0.211-0.215-0.32-0.318-0.178-0.171-0.366-0.333-0.551-0.493-0.008-0.008-0.020-0.014-0.026-0.019-0.010-0.010-0.019-0.021-0.029-0.031l-0.054-1.673c-0.024-0.792 0.131-2.040-0.599-2.344l-3.040-1.265c-0.732-0.304-1.509 0.687-2.088 1.228l-1.224 1.143c-0.274-0.027-0.547-0.042-0.82-0.052-0.076-0.003-0.153-0.002-0.235-0.001-0.176-0.002-0.353-0.007-0.534 0-0.228 0.007-0.457 0.022-0.684 0.041-0.029 0.002-0.059 0.002-0.082 0.003-0.016 0.003-0.028 0.001-0.045 0.004l-1.218-1.147c-0.58-0.543-1.353-1.536-2.088-1.234l-3.039 1.252c-0.736 0.303-0.58 1.551-0.609 2.345l-0.059 1.673c-0.018 0.014-0.037 0.033-0.053 0.050-0.2 0.167-0.396 0.338-0.586 0.518-0.070 0.069-0.138 0.138-0.207 0.208-0.135 0.132-0.271 0.268-0.401 0.407-0.066 0.072-0.128 0.146-0.192 0.22-0.088 0.096-0.174 0.19-0.258 0.29l-1.674 0.051c-0.792 0.025-2.040-0.131-2.344 0.6l-1.266 3.040c-0.304 0.732 0.685 1.506 1.226 2.085l1.143 1.224c-0.018 0.19-0.027 0.378-0.037 0.57 0 0.018-0.003 0.037-0.002 0.054-0.015 0.325-0.023 0.649-0.012 0.973 0.005 0.142 0.016 0.282 0.025 0.423 0.008 0.114 0.011 0.231 0.022 0.345-0.001 0.012 0 0.024 0.001 0.032l-1.146 1.221c-0.543 0.579-1.538 1.35-1.235 2.084l1.252 3.039c0.303 0.736 1.552 0.583 2.346 0.612l1.672 0.057c0.011 0.017 0.025 0.026 0.037 0.043 0.17 0.203 0.348 0.402 0.533 0.602 0.065 0.070 0.134 0.131 0.2 0.2 0.136 0.138 0.274 0.275 0.415 0.408 0.070 0.061 0.144 0.124 0.214 0.189 0.099 0.087 0.195 0.176 0.294 0.256l0.051 1.674c0.025 0.792-0.13 2.043 0.601 2.347l3.040 1.265c0.732 0.305 1.506-0.686 2.085-1.227l1.226-1.14c0.014 0 0.027-0.002 0.040-0.001 0.158 0.017 0.314 0.023 0.471 0.032 0.047 0.004 0.092 0.004 0.137 0.009 0.073 0.002 0.144 0.008 0.215 0.011 0.084 0.002 0.168-0.001 0.252-0 0.204 0.005 0.409 0 0.611-0.009 0.088-0.003 0.178-0.010 0.266-0.015 0.138-0.006 0.27-0.013 0.406-0.021l1.22 1.142c0.581 0.546 1.35 1.538 2.084 1.235l3.040-1.253c0.736-0.303 0.584-1.55 0.612-2.346l0.058-1.669c0.143-0.119 0.281-0.244 0.415-0.366 0.019-0.022 0.040-0.037 0.061-0.054 0.047-0.044 0.096-0.081 0.136-0.123 0.081-0.072 0.151-0.151 0.224-0.223 0.105-0.107 0.218-0.213 0.325-0.325 0.156-0.167 0.313-0.342 0.464-0.524 0.017-0.016 0.031-0.030 0.046-0.051 0.013-0.011 0.020-0.019 0.028-0.027l1.673-0.054c0.792-0.025 2.043 0.13 2.347-0.601l1.265-3.040c0.306-0.731-0.686-1.508-1.227-2.087zM22.688 16c0 3.693-2.994 6.688-6.688 6.688s-6.688-2.994-6.688-6.688 2.994-6.688 6.688-6.688 6.688 2.994 6.688 6.688z"></path>
</svg>
