<svg xmlns="http://www.w3.org/2000/svg" xmlns:xlink="http://www.w3.org/1999/xlink" preserveAspectRatio="xMidYMid" width="14.157" height="14" viewBox="0 0 14.157 14">
  <defs>
  </defs>
  <path d="M13.999,13.872 C13.913,13.957 13.800,14.000 13.687,14.000 C13.573,14.000 13.460,13.957 13.374,13.872 L8.704,9.237 C7.746,10.048 6.556,10.511 5.283,10.511 C3.868,10.511 2.537,9.964 1.537,8.972 C-0.528,6.923 -0.528,3.589 1.537,1.540 C2.537,0.547 3.868,0.000 5.283,0.000 C6.698,0.000 8.028,0.547 9.029,1.540 C10.981,3.477 11.064,6.551 9.324,8.613 L14.000,13.254 C14.172,13.424 14.172,13.702 13.999,13.872 ZM8.403,2.158 C7.569,1.330 6.461,0.875 5.283,0.875 C4.104,0.875 2.996,1.330 2.163,2.158 C0.441,3.866 0.441,6.646 2.163,8.354 C2.996,9.181 4.104,9.636 5.283,9.636 C6.461,9.636 7.569,9.181 8.403,8.354 C10.124,6.646 10.124,3.866 8.403,2.158 Z"/>
</svg>
