<svg xmlns="http://www.w3.org/2000/svg" xmlns:xlink="http://www.w3.org/1999/xlink" preserveAspectRatio="xMidYMid" width="19" height="13" viewBox="0 0 19 13">
  <path d="M9.500,13.000 C3.329,13.000 0.000,8.386 0.000,6.500 C0.000,4.614 3.329,0.000 9.500,0.000 C15.671,0.000 19.000,4.614 19.000,6.500 C19.000,8.386 15.671,13.000 9.500,13.000 ZM9.500,1.182 C3.861,1.182 1.187,5.448 1.187,6.500 C1.187,7.552 3.861,11.818 9.500,11.818 C15.139,11.818 17.812,7.552 17.812,6.500 C17.812,5.448 15.139,1.182 9.500,1.182 ZM9.500,10.045 C7.536,10.045 5.937,8.455 5.937,6.500 C5.937,4.545 7.536,2.955 9.500,2.955 C11.465,2.955 13.062,4.545 13.062,6.500 C13.062,8.455 11.465,10.045 9.500,10.045 ZM9.500,4.136 C8.190,4.136 7.125,5.196 7.125,6.500 C7.125,7.804 8.190,8.864 9.500,8.864 C10.810,8.864 11.875,7.804 11.875,6.500 C11.875,5.196 10.810,4.136 9.500,4.136 Z"/>
</svg>
