<svg id="Слой_1" data-name="Слой 1" xmlns="http://www.w3.org/2000/svg" xmlns:xlink="http://www.w3.org/1999/xlink" viewBox="0 0 21.6 29">
	<ellipse cx="6.8" cy="1.83" rx="1.86" ry="1.83"/>
	<path d="M11.14,9.64c-0.36-.16-2.76-1.33-2.76-1.33S7.53,6.53,7.09,5.55,6.38,4.39,5.79,4.39H4.89a1.58,1.58,0,0,0-.94.33L1.5,6.78a0.93,0.93,0,0,0-.44.56L0.53,10.82a0.68,0.68,0,0,0,.56.86,0.65,0.65,0,0,0,.77-0.47C1.92,10.89,2.42,8,2.42,8L4,6.83C3.76,8,3.49,9.36,3.4,9.81a2.33,2.33,0,0,0,.54,1.81c0.28,0.41,3.9,6,4.37,6.65s0.91,0.91,1.58.55a1.05,1.05,0,0,0,.16-1.53c-0.31-.52-4-6.37-4-6.37L6.7,8.31s0.42,0.6.64,0.93a1.15,1.15,0,0,0,.5.38c0.34,0.18,2,.91,2.47,1.14a0.93,0.93,0,0,0,1.21-.12A0.75,0.75,0,0,0,11.14,9.64Z"/>
	<path d="M3.06,12L2.32,14.58l-2,2.82a1,1,0,0,0,0,1.44c0.62,0.46,1.12-.14,1.44-0.5s1.49-2,1.83-2.39A3,3,0,0,0,4,15.19L4.5,14Z"/>
</svg>
