<svg xmlns="http://www.w3.org/2000/svg" xmlns:xlink="http://www.w3.org/1999/xlink" preserveAspectRatio="xMidYMid" width="15.281" height="15.07" viewBox="0 0 15.281 15.07">
  <path d="M15.126,8.817 L8.920,14.939 C8.830,15.027 8.709,15.076 8.582,15.076 C8.455,15.076 8.334,15.027 8.245,14.939 L0.134,6.938 C0.044,6.850 -0.006,6.729 -0.006,6.604 L0.016,0.482 C0.017,0.222 0.231,0.012 0.494,0.012 L6.677,0.013 C6.804,0.013 6.925,0.063 7.015,0.151 L15.126,8.151 C15.312,8.336 15.312,8.633 15.126,8.817 ZM6.480,0.955 L0.969,0.954 L0.949,6.411 L8.582,13.940 L14.113,8.484 L6.480,0.955 ZM3.970,5.672 C3.483,5.193 3.483,4.415 3.970,3.934 C4.456,3.455 5.245,3.455 5.731,3.934 C6.218,4.415 6.218,5.193 5.731,5.672 C5.245,6.152 4.456,6.152 3.970,5.672 Z"/>
</svg>
