<svg id="Слой_1" data-name="Слой 1" xmlns="http://www.w3.org/2000/svg" xmlns:xlink="http://www.w3.org/1999/xlink" viewBox="0 0 27.79 25.07">
	<path d="M16.89,12.4v-1h-16v1h16ZM14.25,9.62a1.09,1.09,0,1,1,1.07-1.09A1.08,1.08,0,0,1,14.25,9.62Zm-10.89,0A1.09,1.09,0,1,1,4.43,8.53,1.08,1.08,0,0,1,3.36,9.62ZM4.63,1.85H13l1.09,3.34H3.54ZM16.7,4.08H15.54l-1-2.64A1.8,1.8,0,0,0,13.66.49,15.58,15.58,0,0,0,8.89,0,15.58,15.58,0,0,0,4.13.49a1.8,1.8,0,0,0-.93.95l-1,2.64H1.09a1.11,1.11,0,0,0,0,2.22H1.44l-0.28.79A5.08,5.08,0,0,0,.91,8.53v5.06a1.47,1.47,0,0,0,1.45,1.48,1.47,1.47,0,0,0,1.45-1.48v-1.2H14v1.2a1.45,1.45,0,1,0,2.9,0V8.53a5.08,5.08,0,0,0-.25-1.44L16.34,6.3H16.7A1.11,1.11,0,0,0,16.7,4.08Z"/>
</svg>
