<svg xmlns="http://www.w3.org/2000/svg" xmlns:xlink="http://www.w3.org/1999/xlink" preserveAspectRatio="xMidYMid" width="16" height="22" viewBox="0 0 16 22">
  <path d="M8.433,21.836 C8.309,21.945 8.154,22.000 8.000,22.000 C7.846,22.000 7.691,21.945 7.567,21.836 C7.258,21.564 -0.000,15.110 -0.000,8.228 C-0.000,3.691 3.589,-0.000 8.000,-0.000 C12.411,-0.000 16.000,3.691 16.000,8.228 C16.000,15.110 8.742,21.564 8.433,21.836 ZM8.000,1.371 C4.324,1.371 1.333,4.447 1.333,8.228 C1.333,13.562 6.458,18.902 8.000,20.388 C9.542,18.902 14.667,13.562 14.667,8.228 C14.667,4.447 11.676,1.371 8.000,1.371 ZM8.000,12.371 C5.794,12.371 4.000,10.525 4.000,8.257 C4.000,5.988 5.794,4.143 8.000,4.143 C10.206,4.143 12.000,5.988 12.000,8.257 C12.000,10.525 10.206,12.371 8.000,12.371 ZM8.000,5.514 C6.529,5.514 5.333,6.744 5.333,8.257 C5.333,9.769 6.529,10.999 8.000,10.999 C9.471,10.999 10.667,9.769 10.667,8.257 C10.667,6.744 9.471,5.514 8.000,5.514 Z"/>
</svg>
