<svg id="Layer_1" data-name="Layer 1" xmlns="http://www.w3.org/2000/svg" viewBox="0 0 17.14 15.83">
  <defs>
    <style>
      .cls-1 {
        fill: #fff;
        fill-rule: evenodd;
      }
    </style>
  </defs>
  <title>icon-feed</title>
  <path class="cls-1" d="M86.69,33.89H75.82a3.17,3.17,0,0,0-3.15,3.16v9.52a3.17,3.17,0,0,0,3.15,3.16H86.69a3.14,3.14,0,0,0,3.11-3.16V37.05A3.14,3.14,0,0,0,86.69,33.89ZM88.37,40v6.57a1.7,1.7,0,0,1-1.68,1.73H75.82a1.74,1.74,0,0,1-1.72-1.73V37.05a1.74,1.74,0,0,1,1.72-1.73H86.69a1.71,1.71,0,0,1,1.68,1.73V40Z" transform="translate(-72.67 -33.89)"/>
  <g>
    <path class="cls-1" d="M86.11,45a0.69,0.69,0,0,1-.71.66H77.07A0.69,0.69,0,0,1,76.36,45h0a0.69,0.69,0,0,1,.71-0.66H85.4a0.69,0.69,0,0,1,.71.66h0Z" transform="translate(-72.67 -33.89)"/>
    <path class="cls-1" d="M86.11,41.81a0.69,0.69,0,0,1-.71.66H82.17a0.69,0.69,0,0,1-.71-0.66h0a0.69,0.69,0,0,1,.71-0.66H85.4a0.69,0.69,0,0,1,.71.66h0Z" transform="translate(-72.67 -33.89)"/>
    <path class="cls-1" d="M86.11,38.71a0.69,0.69,0,0,1-.71.66H82.17a0.69,0.69,0,0,1-.71-0.66h0a0.69,0.69,0,0,1,.71-0.66H85.4a0.69,0.69,0,0,1,.71.66h0Z" transform="translate(-72.67 -33.89)"/>
    <path class="cls-1" d="M80.44,41.39a1.07,1.07,0,0,1-1,1.13H77.36a1.07,1.07,0,0,1-1-1.13V39.18a1.07,1.07,0,0,1,1-1.13h2.08a1.07,1.07,0,0,1,1,1.13v2.21Z" transform="translate(-72.67 -33.89)"/>
  </g>
</svg>
