<svg id="Layer_1" data-name="Layer 1" xmlns="http://www.w3.org/2000/svg" viewBox="0 0 43.5 54">
  <title>icon-church</title>
  <g>
    <path   d="M50.5,44l4.7,2.9,1-1.7L45.7,38.8V22.4l1.9,1.2,1-1.7L35.4,13.8V10.7h2.3v-2H35.4V6.3h-2V8.7H31.1v2h2.3v3.1L20.2,21.9l1,1.7,2.3-1.4V38.5L12.7,45.1l1,1.7,4.7-2.9V58.3H13.2v2H55.6v-2H50.4V44h0.1ZM25.6,20.9l8.9-5.4,9.2,5.6V37.4l-9.2-5.6-8.9,5.4V20.9Zm6.3,37.5V47.6h5.2V58.4H31.9Zm7.2,0V45.6H29.9V58.4H20.5V42.8l14-8.6,14,8.6V58.4H39.1Z" transform="translate(-12.7 -6.3)"/>
    <path   d="M37.8,23.3a3.3,3.3,0,1,0-3.3,3.3A3.33,3.33,0,0,0,37.8,23.3Zm-4.5,0a1.3,1.3,0,1,1,1.3,1.3A1.26,1.26,0,0,1,33.3,23.3Z" transform="translate(-12.7 -6.3)"/>
  </g>
</svg>
