<svg id="Layer_1" data-name="Layer 1" xmlns="http://www.w3.org/2000/svg" viewBox="0 0 91.12 144.17">
	<path d="M863.8,1937.95a45.56,45.56,0,1,1,45.56-45.56A45.61,45.61,0,0,1,863.8,1937.95Zm0-84.86a39.3,39.3,0,1,0,39.3,39.3A39.34,39.34,0,0,0,863.8,1853.09Z" transform="translate(-818.23 -1846.83)"/>
	<path d="M863.8,1927a34.58,34.58,0,1,1,34.58-34.58A34.62,34.62,0,0,1,863.8,1927Zm0-65.69a31.1,31.1,0,1,0,31.1,31.1A31.14,31.14,0,0,0,863.8,1861.28Z" transform="translate(-818.23 -1846.83)"/>
	<path d="M864.5,1947.75a3.47,3.47,0,0,1-3.5-3.13V1938a3.52,3.52,0,0,1,7,0v6.61A3.47,3.47,0,0,1,864.5,1947.75Z" transform="translate(-818.23 -1846.83)"/>
	<path d="M866.72,1991h-6.21a6.35,6.35,0,0,1-4.62-1.85,7.16,7.16,0,0,1-1.89-4.7v-35.4c0-4.63,3.81-6.2,6.31-6.29,0,0,.16.24,0.2,0.24h6.21a6.7,6.7,0,0,1,6.93,6.14c0,0.05.35-.13,0.35-0.08v35.42C874,1988.65,869.91,1991,866.72,1991Zm-6.26-7h6.21a7.6,7.6,0,0,0,.85.24s0.48,0.27.48,0.24v-35.25c-1-.15-0.57-0.23-0.62-0.32s-0.57.09-.66,0.09h-6.05c-0.07,0,.13-0.07.07,0a0.6,0.6,0,0,1,.27.1v35.42l-0.39-.15A1.5,1.5,0,0,1,860.46,1984Z" transform="translate(-818.23 -1846.83)"/>
</svg>
