<svg id="Layer_1" data-name="Layer 1" xmlns="http://www.w3.org/2000/svg" viewBox="0 0 68.95 67.65">
  <title>icon-parties</title>
  <path   d="M79.5,28.3h0a12.8,12.8,0,0,0-3.7-9h0a12.8,12.8,0,0,0-18,0l-1,1,7,7H29.2L24.9,15.4,12.3,11.3a1.36,1.36,0,0,0-.8,2.6l11.3,3.7,3.5,9.7H13.6l27,27.4V76.3H31.3a1.42,1.42,0,0,0-1.4,1.3,1.35,1.35,0,0,0,1.4,1.3H52.7a1.3,1.3,0,0,0,0-2.6H43.3V54.6L67,30.5l7.8,7.8,1-1a13.44,13.44,0,0,0,3.7-9h0ZM68,18.3a9.7,9.7,0,0,1,4.8,2L68,25V18.3Zm1.9,8.6,4.8-4.8a10.72,10.72,0,0,1,2,4.8H69.9Zm-4.6-8.6V25l-4.8-4.8A11,11,0,0,1,65.3,18.3Zm-38,11.6,2.4,6.6H26.6L20,29.9h7.3ZM41.9,52.1L29.2,39.2H54.7ZM57.3,36.5H32.5l-2.4-6.6H63.8Zm17.4-2.1-4.8-4.8h6.7A9.56,9.56,0,0,1,74.7,34.4Z" transform="translate(-10.55 -11.25)"/>
</svg>
