<svg id="Layer_1" data-name="Layer 1" xmlns="http://www.w3.org/2000/svg" viewBox="0 0 153.47 99.42">
	<title>icon-bicycle</title>
	<g>
		<g>
			<path   d="M1413.81,2862.42a31.32,31.32,0,1,1,31.32-31.32A31.36,31.36,0,0,1,1413.81,2862.42Zm0-56.38a25.06,25.06,0,1,0,25.06,25.06A25.08,25.08,0,0,0,1413.81,2806Z" transform="translate(-1382.49 -2763)"/>
			<path   d="M1504.64,2862.42a31.32,31.32,0,1,1,31.32-31.32A31.36,31.36,0,0,1,1504.64,2862.42Zm0-56.38a25.06,25.06,0,1,0,25.05,25.06A25.08,25.08,0,0,0,1504.64,2806Z" transform="translate(-1382.49 -2763)"/>
			<circle   cx="31.32" cy="67.46" r="6.26"/>
			<circle   cx="122.15" cy="68.15" r="6.26"/>
			<path   d="M1504.56,2833.27a2.84,2.84,0,0,1-3-1.79L1486.71,2787h-52l-16.29,40h29.68a3.52,3.52,0,0,1,0,7h-34.31a3.67,3.67,0,0,1-2.91-4.85l18.79-47.08a3.23,3.23,0,0,1,2.91-2.07H1489a3.14,3.14,0,0,1,3,2.16l15.59,47A3.14,3.14,0,0,1,1504.56,2833.27Z" transform="translate(-1382.49 -2763)"/>
			<path   d="M1457.66,2843a12.53,12.53,0,1,1,12.53-12.53A12.54,12.54,0,0,1,1457.66,2843Zm0-18.79a6.26,6.26,0,1,0,6.26,6.26A6.27,6.27,0,0,0,1457.66,2824.19Z" transform="translate(-1382.49 -2763)"/>
			<path   d="M1451.25,2824a3.13,3.13,0,0,1-2.8-1.73l-19-37.42a3.35,3.35,0,0,1-.49-1.4v-17a3.52,3.52,0,0,1,7,0v16.28l18.25,36.76a3.17,3.17,0,0,1-1.5,4.21A3.56,3.56,0,0,1,1451.25,2824Z" transform="translate(-1382.49 -2763)"/>
			<path   d="M1460.79,2824.19a3.13,3.13,0,0,1-2.33-5.23l28.19-31.32a3.13,3.13,0,1,1,4.66,4.19l-28.19,31.32A3.12,3.12,0,0,1,1460.79,2824.19Z" transform="translate(-1382.49 -2763)"/>
			<path   d="M1488.9,2786.29a3.13,3.13,0,0,1-3-2.27l-4.8-16.7a3.48,3.48,0,0,1,.51-2.91,3.3,3.3,0,0,1,2.5-1.41h19a3,3,0,1,1,0,6h-14.84l3.65,13a3.29,3.29,0,0,1-2.14,4A3.56,3.56,0,0,1,1488.9,2786.29Z" transform="translate(-1382.49 -2763)"/>
			<path   d="M1441.85,2769h-15.66a3,3,0,1,1,0-6h15.66A3,3,0,1,1,1441.85,2769Z" transform="translate(-1382.49 -2763)"/>
			<path   d="M1456.11,2822.93a1.74,1.74,0,0,1-1.71-1.45l-1.54-9.27a1.74,1.74,0,1,1,3.43-.57l1.54,9.27a1.74,1.74,0,0,1-1.43,2Z" transform="translate(-1382.49 -2763)"/>
			<path   d="M1460.74,2850.73a1.74,1.74,0,0,1-1.71-1.45l-1.55-9.27a1.74,1.74,0,0,1,3.43-.57l1.54,9.27a1.74,1.74,0,0,1-1.43,2Z" transform="translate(-1382.49 -2763)"/>
		</g>
		<path   d="M1503.59,2788.7a3.13,3.13,0,0,1,0-6.26,8.64,8.64,0,0,0,3.44-.92c1.92-1,2.82-2.72,2.82-5.35s-0.9-4.32-2.82-5.35a8.63,8.63,0,0,0-3.47-.92,3.13,3.13,0,1,1,0-6.26c5,0,12.53,3.34,12.53,12.53S1508.63,2788.7,1503.59,2788.7Z" transform="translate(-1382.49 -2763)"/>
	</g>
</svg>
