<svg xmlns="http://www.w3.org/2000/svg" xmlns:xlink="http://www.w3.org/1999/xlink" preserveAspectRatio="xMidYMid" width="16.812" height="15.06" viewBox="0 0 16.812 15.06">
  <defs>
    <style>
      .cls-1 {
        fill: #fff;
        filter: url(#color-overlay-1);
        opacity: 0.4;
        fill-rule: evenodd;
      }
    </style>

    <filter id="color-overlay-1" filterUnits="userSpaceOnUse">
      <feFlood flood-color="#60686b"/>
      <feComposite operator="in" in2="SourceGraphic"/>
      <feBlend in2="SourceGraphic" result="solidFill"/>
    </filter>
  </defs>
  <path d="M14.266,3.576 L14.266,6.095 L13.071,6.095 L13.071,3.576 L10.519,3.576 L10.519,2.515 L13.071,2.515 L13.071,0.028 L14.266,0.028 L14.266,2.515 L16.815,2.515 L16.815,3.576 L14.266,3.576 ZM7.729,0.900 C8.781,0.900 9.342,2.135 9.342,3.348 C9.342,4.365 8.757,4.905 7.929,5.527 C7.122,6.135 6.969,6.389 6.969,6.906 C6.969,7.346 7.834,8.096 8.286,8.405 C9.606,9.306 10.035,10.168 10.035,11.565 C10.035,13.305 8.286,15.066 5.120,15.066 C2.343,15.066 -0.000,14.030 -0.000,12.291 C-0.000,10.523 2.137,8.930 4.913,8.930 C5.216,8.930 5.494,8.930 5.781,8.930 C5.402,8.573 5.100,8.050 5.100,7.513 C5.100,7.192 5.205,6.811 5.354,6.539 C5.202,6.549 5.048,6.623 4.890,6.623 C2.609,6.623 1.081,5.200 1.081,3.260 C1.081,1.365 3.191,0.008 5.434,0.008 C6.684,0.008 10.435,0.008 10.435,0.008 L9.315,0.900 L7.729,0.900 ZM5.442,9.156 C3.523,9.135 1.804,10.284 1.804,11.662 C1.804,13.069 3.191,14.239 5.110,14.239 C7.808,14.239 8.749,13.140 8.749,11.733 C8.749,11.565 8.727,11.399 8.688,11.238 C8.477,10.442 7.729,10.047 6.687,9.348 C6.308,9.230 5.890,9.161 5.442,9.156 ZM7.544,3.105 C7.321,1.475 6.096,0.429 4.808,0.392 C3.520,0.355 2.656,1.341 2.879,2.971 C3.100,4.602 4.325,5.954 5.614,5.991 C6.902,6.027 7.765,4.736 7.544,3.105 Z" class="cls-1"/>
</svg>
