<svg id="Layer_1" data-name="Layer 1" xmlns="http://www.w3.org/2000/svg" viewBox="0 0 137.81 106.49">
  <title>icon-photo</title>
  <g>
    <path   d="M2038,1075.31H1912.69a6.13,6.13,0,0,1-6.26-6.26V987.62a6.13,6.13,0,0,1,6.26-6.26H2038a6.13,6.13,0,0,1,6.26,6.26V1069A6.13,6.13,0,0,1,2038,1075.31ZM1912.7,1069H2038V987.62H1912.69V1069Z" transform="translate(-1906.43 -968.83)"/>
    <path   d="M1975.33,1053.39a25.06,25.06,0,1,1,25.06-25.06A25.08,25.08,0,0,1,1975.33,1053.39Zm0-43.85a18.79,18.79,0,1,0,18.79,18.79A18.81,18.81,0,0,0,1975.33,1009.54Z" transform="translate(-1906.43 -968.83)"/>
    <path   d="M1962.81,987.62a3.13,3.13,0,0,1-3.13-3.13v-9.4h-25.06v9.4a3.13,3.13,0,1,1-6.26,0v-9.4a6.13,6.13,0,0,1,6.26-6.26h25.06a6.13,6.13,0,0,1,6.26,6.26v9.4A3.13,3.13,0,0,1,1962.81,987.62Z" transform="translate(-1906.43 -968.83)"/>
    <path   d="M2041.11,1001.88H1909.56a1.74,1.74,0,1,1,0-3.48h131.54A1.74,1.74,0,1,1,2041.11,1001.88Z" transform="translate(-1906.43 -968.83)"/>
    <path   d="M2041.11,1058.26H1909.56a1.74,1.74,0,1,1,0-3.48h131.54A1.74,1.74,0,1,1,2041.11,1058.26Z" transform="translate(-1906.43 -968.83)"/>
    <path   d="M1923.66,1048.87a6.44,6.44,0,1,1,6.44-6.44A6.45,6.45,0,0,1,1923.66,1048.87Zm0-9.4a3,3,0,1,0,3,3A3,3,0,0,0,1923.66,1039.47Z" transform="translate(-1906.43 -968.83)"/>
    <path   d="M1975.33,1042.6a14.27,14.27,0,1,1,14.27-14.27A14.29,14.29,0,0,1,1975.33,1042.6Zm0-25.06a10.79,10.79,0,1,0,10.79,10.79A10.8,10.8,0,0,0,1975.33,1017.55Z" transform="translate(-1906.43 -968.83)"/>
  </g>
</svg>
