<svg id="Слой_1" data-name="Слой 1" xmlns="http://www.w3.org/2000/svg" xmlns:xlink="http://www.w3.org/1999/xlink" viewBox="0 0 33.3 33.11">
	<path d="M18,23.2a10.84,10.84,0,0,1-4.8-1.3,25.3,25.3,0,0,1-6.5-4.8,26,26,0,0,1-4.8-6.5C0.2,7.1.1,4.2,1.8,2.6a1,1,0,0,1,1.4,0A1,1,0,0,1,3.2,4c-1,1-.8,3.2.5,5.8a23.61,23.61,0,0,0,4.4,6,23.61,23.61,0,0,0,6,4.4c2.6,1.3,4.8,1.5,5.8.5a1,1,0,0,1,1.4,1.4A4.86,4.86,0,0,1,18,23.2Z"  clip-rule="evenodd"/>
	<path d="M7.8,10.7a1,1,0,0,1-.9-0.6,0.88,0.88,0,0,1,.4-1.3L9.6,7.7a1.34,1.34,0,0,0,.8-1.3A1,1,0,0,0,10,5.7L6.7,2.3A1.44,1.44,0,0,0,5.4,2l-0.6.3L3.2,4A1,1,0,0,1,1.8,4a1,1,0,0,1,0-1.4L3.4,1A2.85,2.85,0,0,1,4.8.2,3.59,3.59,0,0,1,8.1,1l3.3,3.3a3.38,3.38,0,0,1,.9,1.9,3.45,3.45,0,0,1-1.9,3.4L8.1,10.7C8.1,10.6,7.9,10.7,7.8,10.7Z"  clip-rule="evenodd"/>
	<path d="M20.5,22.3a0.91,0.91,0,0,1-.7-0.3,1,1,0,0,1,0-1.4L21.4,19a0.71,0.71,0,0,0,.3-0.6,1.44,1.44,0,0,0-.3-1.3l-3.3-3.3a2.51,2.51,0,0,0-.7-0.4,1.21,1.21,0,0,0-1.3.8L15,16.5a0.88,0.88,0,0,1-1.3.4,0.88,0.88,0,0,1-.4-1.3l1.1-2.3a3.37,3.37,0,0,1,3.4-1.9,3.1,3.1,0,0,1,1.8.9l3.3,3.3a3.13,3.13,0,0,1,.8,3.3,3.92,3.92,0,0,1-.8,1.4L21.2,22A0.91,0.91,0,0,1,20.5,22.3Z"  clip-rule="evenodd"/>
	<path d="M14.1,17a1.42,1.42,0,0,1-.6-0.2q-1.8-1.35-3.6-3a23.84,23.84,0,0,1-3-3.6,1,1,0,0,1,.3-1.4A1.06,1.06,0,0,1,8.6,9a21.32,21.32,0,0,0,2.8,3.3,41,41,0,0,0,3.3,2.8,0.9,0.9,0,0,1,.2,1.4A0.69,0.69,0,0,1,14.1,17Z"  clip-rule="evenodd"/>
</svg>
