<svg xmlns="http://www.w3.org/2000/svg" width="150" height="153" viewBox="0 0 150 153" shape-rendering="geometricPrecision" text-rendering="geometricPrecision" image-rendering="optimizeQuality" fill-rule="evenodd" clip-rule="evenodd"><path d="M24 154c-14 0-26-12-26-27s12-27 26-27 26 12 26 27-12 27-26 27zm0-43c-8 0-15 7-15 16s7 16 15 16 15-7 15-16-7-16-15-16zM35 94l-10-1c1-6 2-11 4-17l10 3c-2 5-3 10-4 15zm71-12c-6 0-11-1-16-4l5-9c5 2 9 3 12 3l2 10h-3zm19-11l-9-6c3-4 4-9 5-14l11 3c-2 6-4 11-7 17zm-49-4c-3-4-7-7-11-9l5-9c5 3 9 6 14 10l-8 8zm-31-1l-9-6c4-6 8-11 14-13l4 10c-4 1-7 4-9 9zM105 9l8-7 34 34-7 7z"/><path d="M106 35l35-35 7 8-34 34z"/></svg>
