<svg id="Layer_1" data-name="Layer 1" xmlns="http://www.w3.org/2000/svg" viewBox="0 0 84.1 90.02">
  <title>icon-post</title>
  <path   d="M75.3,28.7L53.3,6.4a4.53,4.53,0,0,0-6.6,0h0l-22,22.3h-12A4.69,4.69,0,0,0,8,33.4V90.3A4.69,4.69,0,0,0,12.7,95H87.4a4.69,4.69,0,0,0,4.7-4.7V33.4a4.69,4.69,0,0,0-4.7-4.7H75.3ZM50,9.2L69.8,29.3H30.1ZM85.28,91H14.72a3.4,3.4,0,0,1-3.28-3.53V36.2a3.4,3.4,0,0,1,3.28-3.53H85.38a3.4,3.4,0,0,1,3.28,3.53V87.5A3.42,3.42,0,0,1,85.28,91ZM40.7,52.4A4.7,4.7,0,1,1,36,47.7,4.57,4.57,0,0,1,40.7,52.4ZM73.3,76H36l7-14.2,4.7,9.5L59.4,47.6Z" transform="translate(-8 -4.98)"/>
</svg>
