<svg xmlns="http://www.w3.org/2000/svg" xmlns:xlink="http://www.w3.org/1999/xlink" preserveAspectRatio="xMidYMid" width="25.469" height="23.438" viewBox="0 0 25.469 23.438">
  <defs>
    <style>
    </style>
  </defs>
  <path d="M351.256 668.279c-11.907 0-17.86 0-29.767 0v-65.488c11.907-5.953 17.86 0 29.767 0s23.814 0 29.767-5.953v65.488c-11.907 0-17.86 5.953-29.767 5.953zM1006.14 954.047c0 0 0 0 0 0v0 0c0 0 0 0 0 0v0c-5.953 0-5.953 0 0 0l-11.907 5.953c-11.907 0-17.86 0-29.767-5.953l-297.674-178.605-297.674 178.605c-5.953 5.953-23.814 5.953-35.721 0l-315.535-190.512c-11.907-5.953-17.86-17.86-17.86-29.767v-762.047c0-11.907 5.953-23.814 17.86-29.767 5.953-5.953 11.907-5.953 17.86-5.953s11.907 0 17.86 5.953l297.674 178.605 297.674-178.605c11.907-5.953 23.814-5.953 35.721 0l315.535 190.512c11.907 5.953 17.86 17.86 17.86 29.767v762.047c5.953 11.907 0 23.814-11.907 29.767zM952.558 186.047l-250.047-148.837v130.977c-11.907 0-17.86 0-23.814 0-11.907 0-23.814 0-35.721 5.953v-130.977l-261.953 142.884v339.349c-5.953 0-17.86 5.953-29.767 5.953-5.953 0-17.86 0-29.767-5.953v-333.395l-250.047-154.791v678.698l250.047 154.791v-130.977c11.907 0 17.86 0 29.767 0s23.814 0 29.767-5.953v125.023l256-148.837v-339.349c11.907-5.953 29.767-5.953 35.721-5.953 11.907 0 17.86 0 23.814 0v345.302l256 148.837v-672.744zM672.744 299.163c-11.907 0-23.814 0-35.721 5.953v-65.488c11.907 0 23.814-5.953 35.721-5.953s17.86 0 23.814 0v65.488c-5.953 0-11.907 0-23.814 0zM857.302 448c0 17.86-11.907 29.767-29.767 29.767s-29.767-11.907-29.767-29.767v-59.535c0-11.907-5.953-95.256-119.070-95.256-125.023 0-130.977 83.349-130.977 95.256v113.116c0 59.535-41.674 166.698-196.465 166.698-148.837 0-190.512-113.116-190.512-178.605v-196.465c0-17.86 11.907-29.767 29.767-29.767s29.767 11.907 29.767 29.767v196.465c5.953 11.907 11.907 113.116 130.977 113.116s125.023-95.256 125.023-101.209v-107.163c0-53.581 41.674-160.744 196.465-160.744 142.884 0 184.558 101.209 184.558 154.791v59.535zM863.256 620.651c0-19.728-15.993-35.721-35.721-35.721s-35.721 15.993-35.721 35.721c0 19.728 15.993 35.721 35.721 35.721s35.721-15.993 35.721-35.721zM827.535 573.023c-29.767 0-47.628 23.814-47.628 47.628s23.814 47.628 47.628 47.628 47.628-23.814 47.628-47.628-17.86-47.628-47.628-47.628zM827.535 644.465c-17.86 0-29.767-11.907-29.767-29.767s11.907-29.767 29.767-29.767 29.767 11.907 29.767 29.767-11.907 29.767-29.767 29.767z"/>
</svg>
