<svg id="Слой_1" data-name="Слой 1" xmlns="http://www.w3.org/2000/svg" xmlns:xlink="http://www.w3.org/1999/xlink" viewBox="0 0 77 70">
	<circle cx="15" cy="9.6" r="1.8"/>
	<circle cx="20.1" cy="9.6" r="1.8"/>
	<circle cx="10" cy="9.6" r="1.8"/>
	<path d="M74.4,7.1v7.8H2.9V7.1C2.9,5,4,3.3,5.5,3.3H71.8C73.2,3.3,74.4,5.1,74.4,7.1Zm0,10.8V63.2c0,1.8-1.1,3.3-2.6,3.3H5.5c-1.4,0-2.6-1.5-2.6-3.3V17.9H74.4ZM71.9,0.5H5.4C2.8,0.5.7,3.1,0.7,6.3V63.6c0,3.2,2.1,5.8,4.7,5.8H71.9c2.6,0,4.7-2.6,4.7-5.8V6.3C76.6,3.1,74.5.5,71.9,0.5Z"/>
	<path d="M20.9,39.5a1.09,1.09,0,0,0,.4.9,1.21,1.21,0,0,0,1.8,0L24.5,39l1.4,1.4a1.21,1.21,0,0,0,1.8,0,1.49,1.49,0,0,0,.4-0.9,1.09,1.09,0,0,0-.4-0.9l-1.3-1.4,1.5-1.5a1.27,1.27,0,1,0-1.8-1.8l-1.4,1.4-1.4-1.4a1.27,1.27,0,1,0-1.8,1.8l1.4,1.4-1.4,1.4A1,1,0,0,0,20.9,39.5Z"/>
	<path d="M49.4,39.5a1.09,1.09,0,0,0,.4.9,1.22,1.22,0,0,0,.9.4,1.39,1.39,0,0,0,.9-0.4L53,39l1.4,1.4a1.21,1.21,0,0,0,1.8,0,1.27,1.27,0,0,0,0-1.8l-1.4-1.4,1.4-1.4a1.27,1.27,0,0,0,0-1.8,1.49,1.49,0,0,0-.9-0.4,1.09,1.09,0,0,0-.9.4L53,35.3l-1.4-1.4a1.49,1.49,0,0,0-.9-0.4,1.09,1.09,0,0,0-.9.4,1.49,1.49,0,0,0-.4.9,1.09,1.09,0,0,0,.4.9l1.4,1.4-1.4,1.4A1.28,1.28,0,0,0,49.4,39.5Z"/>
	<path d="M43.9,52.6h3.2c0.3,1.7,0,3.1-.9,3.7a1.21,1.21,0,0,1-1.4.1C44,55.8,43.6,54.4,43.9,52.6ZM26.5,51.4a1.15,1.15,0,0,0,1.2,1.2H41.3c-0.2,2.7.5,4.8,2.1,5.9a3.94,3.94,0,0,0,2.1.6,3.23,3.23,0,0,0,2.2-.7c1.8-1.3,2.4-4,1.6-7.1a0.76,0.76,0,0,0-.2-0.5,1.25,1.25,0,0,0-1.1-.6H27.7A1.16,1.16,0,0,0,26.5,51.4Z"/>
</svg>
