<svg id="Слой_1" data-name="Слой 1" xmlns="http://www.w3.org/2000/svg" xmlns:xlink="http://www.w3.org/1999/xlink" viewBox="0 0 60 60">
  <defs>
    <style>
      .cls-1, .cls-2 {
        fill: none;
      }

      .cls-2 {
        clip-rule: evenodd;
      }

      .cls-3 {
        clip-path: url(#clip-path);
      }

      .cls-4 {
        clip-path: url(#clip-path-2);
      }

      .cls-5 {
        fill: #fff;
      }

      .cls-6 {
        clip-path: url(#clip-path-3);
      }

      .cls-7 {
        fill: #3b5998;
      }
    </style>
    <clipPath id="clip-path">
      <circle class="cls-1" cx="32" cy="30" r="21"/>
    </clipPath>
    <clipPath id="clip-path-2">
      <rect class="cls-1" x="-43" y="-327" width="375" height="667"/>
    </clipPath>
    <clipPath id="clip-path-3">
      <path class="cls-2" d="M37.11,20.73H32.6a1.51,1.51,0,0,0-1.13,1.64v3.26h5.64l-0.85,4.64H31.47V44.21H26.15V30.27H21.32V25.63h4.83V22.89c0-3.92,2.72-7.1,6.45-7.1h4.51v4.94ZM30,0A30,30,0,1,0,60,30,30,30,0,0,0,30,0Z"/>
    </clipPath>
  </defs>
  <title>icon-fb@round</title>
  <g class="cls-3">
    <g class="cls-4">
      <rect class="cls-5" x="6" y="4" width="52" height="52"/>
    </g>
  </g>
  <g class="cls-6">
    <g class="cls-4">
      <rect class="cls-7" x="-5" y="-5" width="70" height="70"/>
    </g>
  </g>
</svg>
