<svg id="Layer_1" data-name="Layer 1" xmlns="http://www.w3.org/2000/svg" viewBox="0 0 162.86 97.09">
  <title>icon-car</title>
  <g>
    <path d="M645.12,1954H629.46a3.13,3.13,0,0,1-3.13-3.13c0-1-.34-25.05-21.92-25.05s-21.92,24-21.92,25.06a3.13,3.13,0,0,1-3.13,3.12H488.52a3.12,3.12,0,0,1-3.13-3.25,91.54,91.54,0,0,1,13.39-40.68,80.19,80.19,0,0,1,29.17-28c14.92-8.39,33.27-12.64,54.53-12.64a3.13,3.13,0,0,1,2.94,2.06L597.24,1904a73.39,73.39,0,0,1,24.09,5.66c12.29,5.38,26.93,16.89,26.93,41.23A3.13,3.13,0,0,1,645.12,1954Zm-12.73-6h9.51c-0.92-16-8.68-26.19-23.09-32.49a68,68,0,0,0-23.8-5.28,3.16,3.16,0,0,1-2.94-2.09l-11.77-32.39c-35.38.5-61,13.28-76.19,37.77A89.55,89.55,0,0,0,492,1948h84.46a42,42,0,0,1,3.2-12.36c3.23-7.28,10.16-16,24.79-16s21.55,8.77,24.79,16.05A41.81,41.81,0,0,1,632.39,1948Z" transform="translate(-485.39 -1869.44)"/>
    <path d="M544.9,1954a3.24,3.24,0,0,1-.45,0,3.13,3.13,0,0,1-2.66-3.54c2.52-17.63-7.33-21.65-7.43-21.69l-0.27-.12c-22.13-11.06-42.67,23.48-42.87,23.83a3.13,3.13,0,0,1-5.41-3.16,85,85,0,0,1,14.69-18c12.27-11.16,24.82-14,36.3-8.36,1.73,0.74,14.25,6.93,11.19,28.35A3.13,3.13,0,0,1,544.9,1954Z" transform="translate(-485.39 -1869.44)"/>
    <path d="M629.58,1954H579.47a3,3,0,1,1,0-6h50.11A3,3,0,1,1,629.58,1954Z" transform="translate(-485.39 -1869.44)"/>
    <path d="M604.76,1966.54a18.84,18.84,0,0,1-18.41-15A2.86,2.86,0,0,1,587,1949a3,3,0,0,1,2.42-1H620.1a2.95,2.95,0,0,1,3.07,3.56A18.79,18.79,0,0,1,604.76,1966.54ZM593.91,1954c2.19,3,6.29,6.26,10.85,6.26s8.66-3.26,10.85-6.26h-21.7Z" transform="translate(-485.39 -1869.44)"/>
    <path d="M519.84,1966.54a18.84,18.84,0,0,1-18.42-15,2.87,2.87,0,0,1,.65-2.48,3,3,0,0,1,2.42-1h30.69a3,3,0,0,1,3.07,3.56A18.79,18.79,0,0,1,519.84,1966.54ZM509,1954c2.19,3,6.29,6.26,10.85,6.26s8.66-3.26,10.85-6.26H509Z" transform="translate(-485.39 -1869.44)"/>
    <path d="M595.13,1910h-87.7a3,3,0,1,1,0-6h87.7A3,3,0,1,1,595.13,1910Z" transform="translate(-485.39 -1869.44)"/>
    <path d="M558,1905.64a2,2,0,0,1-2-1.74v-28.19a2,2,0,0,1,4,0v28.19A2,2,0,0,1,558,1905.64Z" transform="translate(-485.39 -1869.44)"/>
  </g>
</svg>
