<svg id="Layer_1" data-name="Layer 1" xmlns="http://www.w3.org/2000/svg" xmlns:xlink="http://www.w3.org/1999/xlink" viewBox="0 0 28.78 28.78">
  <defs>
    <style>
      .cls-1 {
        fill: none;
        clip-rule: evenodd;
      }

      .cls-2 {
        clip-path: url(#clip-path);
      }

      .cls-3 {
        fill: #fff;
      }

      .cls-4 {
        clip-path: url(#clip-path-2);
      }
    </style>
    <clipPath id="clip-path" transform="translate(-24.51 -27.41)">
      <path class="cls-1" d="M35.6,46.63L36,46.88a5.88,5.88,0,0,0,1.22.51l0.5,0.15v0.53a0.76,0.76,0,0,0,.67.76h0.94A0.76,0.76,0,0,0,40,48.1l0-.5,0.48-.13a5.9,5.9,0,0,0,1.22-.5l0.46-.25,0.37,0.37a0.74,0.74,0,0,0,1,0l0.67-.67a0.67,0.67,0,0,0,0-.92l-0.34-.38,0.25-.44a5.9,5.9,0,0,0,.51-1.22l0.15-.5h0.52a0.59,0.59,0,0,0,.57-0.67V41.33a0.59,0.59,0,0,0-.53-0.67l-0.5,0-0.13-.48a6.06,6.06,0,0,0-.51-1.23L44,38.46l0.37-.37a0.67,0.67,0,0,0,0-1l-0.67-.67a0.74,0.74,0,0,0-.92,0l-0.37.34L42,36.54A5.84,5.84,0,0,0,40.74,36l-0.44-.15V35.35a0.65,0.65,0,0,0-.73-0.58H38.62a0.6,0.6,0,0,0-.67.54l0,0.5-0.48.13a6.07,6.07,0,0,0-1.23.51l-0.46.25-0.37-.37a0.73,0.73,0,0,0-1,0L33.76,37a0.67,0.67,0,0,0,0,.92l0.34,0.38-0.25.44A5.91,5.91,0,0,0,33.32,40l-0.15.5H32.64a0.77,0.77,0,0,0-.78.67v0.94a0.77,0.77,0,0,0,.74.67l0.5,0,0.13,0.48a5.94,5.94,0,0,0,.51,1.23L34,45l-0.37.37a0.67,0.67,0,0,0-.2.48,0.66,0.66,0,0,0,.2.47l0.67,0.67a0.74,0.74,0,0,0,.92,0Zm3.78,3.6H38.43a2.17,2.17,0,0,1-2-1.64,6.67,6.67,0,0,1-.69-0.29,2.18,2.18,0,0,1-2.43-.37l-0.67-.67a2.08,2.08,0,0,1-.33-2.51A7.28,7.28,0,0,1,32,44.06a2.18,2.18,0,0,1-1.56-2V41.14a2.18,2.18,0,0,1,1.65-2,6.92,6.92,0,0,1,.29-0.69A2.08,2.08,0,0,1,32.77,36l0.67-.67A2.18,2.18,0,0,1,35.95,35a7.26,7.26,0,0,1,.7-0.29,2,2,0,0,1,2-1.36h0.94a2,2,0,0,1,2,1.45,6.83,6.83,0,0,1,.69.29,2.18,2.18,0,0,1,2.43.37l0.67,0.67a2.08,2.08,0,0,1,.33,2.51,7.29,7.29,0,0,1,.28.69,2,2,0,0,1,1.35,2v0.94a2,2,0,0,1-1.44,2,7.2,7.2,0,0,1-.29.69,2.09,2.09,0,0,1-.37,2.44l-0.67.67a2.09,2.09,0,0,1-1.47.6,2.13,2.13,0,0,1-1-.27,7.45,7.45,0,0,1-.69.29A2.17,2.17,0,0,1,39.37,50.23Z"/>
    </clipPath>
    <clipPath id="clip-path-2" transform="translate(-24.51 -27.41)">
      <path class="cls-1" d="M39,40.5a1.21,1.21,0,1,0,1.21,1.21A1.21,1.21,0,0,0,39,40.5m0,3.83a2.62,2.62,0,1,1,2.61-2.62A2.62,2.62,0,0,1,39,44.32"/>
    </clipPath>
  </defs>
  <title>icon-services-01</title>
  <g class="cls-2">
    <rect class="cls-3" width="28.78" height="28.78"/>
  </g>
  <g class="cls-4">
    <rect class="cls-3" x="5.92" y="5.73" width="17.14" height="17.14"/>
  </g>
</svg>
