<svg xmlns="http://www.w3.org/2000/svg" xmlns:xlink="http://www.w3.org/1999/xlink" preserveAspectRatio="xMidYMid" width="32" height="32" viewBox="0 0 15 21">
  <path d="M25.422 22.756c2.844-2.844 4.444-6.756 4.444-10.844 0-3.733-1.422-7.289-3.733-9.956v0c0.356-0.356 0.356-1.067 0-1.6-0.356-0.356-1.067-0.356-1.6 0l-2.133 2.133c0.533 0.533 1.067 1.067 1.6 1.6l0.711-0.711c1.956 2.311 3.2 5.333 3.2 8.533 0 3.556-1.422 6.756-3.911 9.244s-5.689 3.911-9.244 3.911c0 0 0 0 0 0s0 0 0 0c-3.2 0-6.044-1.067-8.533-3.2l0.533-0.533c-0.533-0.533-1.067-0.889-1.6-1.6l-2.311 2.311c-0.356 0.356-0.356 1.067 0 1.6 0.178 0.178 0.533 0.356 0.711 0.356s0.533-0.178 0.711-0.356v0c2.489 2.133 5.689 3.556 8.889 3.733v2.667h-4.267c-0.533 0-1.067 0.533-1.067 1.067s0.356 0.889 1.067 0.889h11.378c0.533 0 1.067-0.533 1.067-1.067s-0.533-1.067-1.067-1.067h-4.622v-2.667c3.733-0.356 7.111-1.778 9.778-4.444zM14.578 23.111c-6.222 0-11.2-4.978-11.2-11.2s4.978-11.2 11.2-11.2 11.2 4.978 11.2 11.2-4.978 11.2-11.2 11.2zM14.578 3.2c-4.8 0-8.711 3.911-8.711 8.711s3.911 8.711 8.711 8.711 8.711-3.911 8.711-8.711-3.911-8.711-8.711-8.711z"></path>
</svg>
