<svg id="Layer_1" data-name="Layer 1" xmlns="http://www.w3.org/2000/svg" viewBox="0 0 15.3 18.02">
  <defs>
    <style>
      .cls-1 {
        fill: #fff;
      }
    </style>
  </defs>
  <title>icon-globe</title>
  <path class="cls-1" d="M3.42,92.11A8.54,8.54,0,0,0,5.94,86a8.53,8.53,0,0,0-2.11-5.63l0,0A0.61,0.61,0,0,0,3,79.5l-0.44.44h0l-0.82.82a6.89,6.89,0,0,1,.86.86L3,81.25A7.33,7.33,0,0,1,4.72,86a7.34,7.34,0,0,1-2.16,5.22,7.34,7.34,0,0,1-5.22,2.16h0a7.33,7.33,0,0,1-4.77-1.76l0.37-.37a6.89,6.89,0,0,1-.86-0.86l-1.26,1.26a0.61,0.61,0,0,0,0,.86,0.61,0.61,0,0,0,.43.18,0.61,0.61,0,0,0,.43-0.18l0,0a8.52,8.52,0,0,0,5,2.08v1.53H-5.89a0.61,0.61,0,0,0-.61.61,0.61,0.61,0,0,0,.61.61H0.56a0.61,0.61,0,0,0,0-1.21H-2.06V94.6A8.53,8.53,0,0,0,3.42,92.11Z" transform="translate(9.37 -79.33)"/>
  <path class="cls-1" d="M-2.66,92.34A6.32,6.32,0,0,1-9,86a6.32,6.32,0,0,1,6.31-6.31A6.32,6.32,0,0,1,3.65,86,6.32,6.32,0,0,1-2.66,92.34Zm0-11.21A4.91,4.91,0,0,0-7.57,86a4.91,4.91,0,0,0,4.9,4.9A4.91,4.91,0,0,0,2.24,86,4.91,4.91,0,0,0-2.66,81.13Z" transform="translate(9.37 -79.33)"/>
</svg>
