<svg id="Layer_1" data-name="Layer 1" xmlns="http://www.w3.org/2000/svg" viewBox="0 0 90.93 54.16">
  <title>icon-mountains</title>
  <path   d="M95.13,75.32L70.54,38.07a2.51,2.51,0,0,0-.26-0.31A1.49,1.49,0,0,0,70,37.53l0,0-0.06,0-0.19-.11-0.18-.07-0.2-.06-0.2,0H68.83l-0.23,0-0.2,0-0.19.06h0L68,37.36a0.87,0.87,0,0,0-.18.11,0.94,0.94,0,0,0-.18.12l-0.13.1a0.65,0.65,0,0,0-.11.12l-0.08.08a1.71,1.71,0,0,0-.11.14l0,0L58.52,51.21,51.73,40.93c0-.08-0.1-0.16-0.16-0.24L41.42,25.32l-0.1-.16L41.16,25A1.53,1.53,0,0,0,41,24.77l-0.19-.15-0.1-.06-0.19-.11-0.18-.07-0.2-.06-0.2,0-0.23,0H39.61l-0.23,0-0.2,0-0.2.06-0.18.07a0.87,0.87,0,0,0-.18.11l-0.07,0a2.06,2.06,0,0,0-.57.57L23.26,47.46,4.86,75.32a2,2,0,0,0,.57,2.77,1.94,1.94,0,0,0,1.1.33,2,2,0,0,0,1.67-.9L25.54,51.26l4.87,2.6a2,2,0,0,0,.94.24A2,2,0,0,0,33,53.29l4.19-5.67,5.67,3.72a2,2,0,0,0,2.67-.44l4.37-5.55,7,10.63L71.1,77.52a2,2,0,0,0,1.67.9,1.92,1.92,0,0,0,1.1-.33,2,2,0,0,0,.57-2.77L60.92,54.84l7.95-12L91.8,77.52a2,2,0,0,0,2.77.57A2,2,0,0,0,95.13,75.32ZM43.48,47l-5.72-3.75a2,2,0,0,0-2.7.49l-4.29,5.79-3-1.61,11.9-18,7.89,11.94Z" transform="translate(-4.53 -24.26)"/>
</svg>
