<svg xmlns="http://www.w3.org/2000/svg" xmlns:xlink="http://www.w3.org/1999/xlink" preserveAspectRatio="xMidYMid" width="18.688" height="15.78" viewBox="0 0 18.688 15.78">
  <defs>

  </defs>
  <path d="M-0.012,4.199 C1.633,2.941 3.970,0.181 5.794,0.181 C7.615,0.181 8.062,2.240 8.311,4.110 C8.562,5.978 9.278,10.065 10.240,10.065 C11.205,10.065 13.402,6.450 13.277,5.053 C13.153,3.657 11.563,3.866 10.687,4.267 C11.491,1.472 13.349,-0.013 15.724,-0.013 C18.100,-0.013 18.672,1.595 18.672,3.569 C18.672,6.573 12.313,15.777 8.473,15.777 C6.096,15.777 5.508,12.424 5.027,10.764 C4.543,9.105 3.596,4.755 2.489,4.477 C2.059,4.408 0.846,5.331 0.846,5.331 L-0.012,4.199 Z"/>
</svg>
