<svg id="Layer_1" data-name="Layer 1" xmlns="http://www.w3.org/2000/svg" viewBox="0 0 44.75 48">
  <title>icon-kids</title>
  <g>
    <path   d="M46.38,19.27A19.2,19.2,0,0,0,40.44,5.39a0.94,0.94,0,0,0-.09-0.11l-0.08,0A19.18,19.18,0,0,0,27.11,0a1,1,0,0,0-1,1V20.31H8.56a1,1,0,0,0-.08-0.41L3.54,8.35a1,1,0,1,0-1.84.79L6.65,20.69a1,1,0,0,0,.08.12,1,1,0,0,0-.16.5C6.57,28.3,12.7,34,20.23,34H32.71c7.54,0,13.67-5.69,13.67-12.68a1,1,0,0,0-.08-0.4C46.34,20.37,46.38,19.81,46.38,19.27ZM28.11,2.05A17.17,17.17,0,0,1,38.32,6.16L28.11,18.53V2.05ZM39.76,7.56a17.18,17.18,0,0,1,4.61,11.71c0,0.35,0,.69-0.05,1H29.23ZM32.71,32H20.23c-6.06,0-11.06-4.26-11.61-9.68H44.32C43.77,27.73,38.77,32,32.71,32Z" transform="translate(-1.62)"/>
    <path   d="M18.26,35.89a6.05,6.05,0,1,0,6.05,6.05A6.06,6.06,0,0,0,18.26,35.89Zm0,10.1a4.05,4.05,0,1,1,4.05-4.05A4.06,4.06,0,0,1,18.26,46Z" transform="translate(-1.62)"/>
    <path   d="M33.41,35.89a6.05,6.05,0,1,0,6.05,6.05A6.06,6.06,0,0,0,33.41,35.89Zm0,10.11a4.05,4.05,0,1,1,4.05-4.05A4.06,4.06,0,0,1,33.41,46Z" transform="translate(-1.62)"/>
  </g>
</svg>
