<svg id="Слой_1" data-name="Слой 1" xmlns="http://www.w3.org/2000/svg" xmlns:xlink="http://www.w3.org/1999/xlink" viewBox="0 0 66.66 62.85">
	<path d="M44.56,48.5h-32l-0.08-.2L5.29,22.62H51.64ZM56.24,19.23a3.37,3.37,0,0,0-2.76-1.12H50.92a2.24,2.24,0,0,0-.17-0.26L37.23,1.05A2.37,2.37,0,0,0,34,.66a2.2,2.2,0,0,0-.41,3.16l11.55,14.3H11.74L23.67,3.84A2.2,2.2,0,0,0,23.32.67,2.37,2.37,0,0,0,20,1L6,17.78a2.23,2.23,0,0,0-.19.27H3.52a3.36,3.36,0,0,0-2.7,1.17A3.06,3.06,0,0,0,.31,22L7.93,49.42C8.17,50.26,9.11,53,11.47,53H45.53c1.81,0,3.08-1.68,3.54-3.35l7.61-27.81A2.81,2.81,0,0,0,56.24,19.23Z"/>
	<path d="M18,41.74a2.35,2.35,0,0,0,2.36-2.25v-9a2.36,2.36,0,0,0-4.72,0v9A2.35,2.35,0,0,0,18,41.74Z" />
	<path d="M39,41.74a2.35,2.35,0,0,0,2.36-2.25v-9a2.36,2.36,0,0,0-4.72,0v9A2.35,2.35,0,0,0,39,41.74Z" />
	<path d="M28.5,41.74a2.35,2.35,0,0,0,2.36-2.25v-9a2.36,2.36,0,0,0-4.72,0v9A2.35,2.35,0,0,0,28.5,41.74Z" />
</svg>
