<svg id="Layer_1" data-name="Layer 1" xmlns="http://www.w3.org/2000/svg" viewBox="0 0 80 100">
  <title>icon-password</title>
  <path d="M40,1A39,39,0,1,0,79,40,39.05,39.05,0,0,0,40,1Zm0,76.5A37.5,37.5,0,1,1,77.5,40,37.5,37.5,0,0,1,40,77.5Z"/>
  <path d="M55.75,35.94H24.25a1.5,1.5,0,0,0-1.5,1.5v4.64A17.24,17.24,0,0,0,40,59.33,17.27,17.27,0,0,0,57.25,42.08V37.44A1.5,1.5,0,0,0,55.75,35.94Zm0,6.14a15.75,15.75,0,1,1-31.5,0V37.44h31.5v4.64Z"/>
  <path d="M40,15.91A14.11,14.11,0,0,0,25.9,30v7.44h1.5V30a12.6,12.6,0,0,1,25.2,0v7.44h1.5V30A14.11,14.11,0,0,0,40,15.91Z"/>
  <path d="M40.9,45.32a1.5,1.5,0,1,0-1.8,0h0l-0.6,6.06h3l-0.6-6.06h0Z"/>
</svg>
