<svg xmlns="http://www.w3.org/2000/svg" xmlns:xlink="http://www.w3.org/1999/xlink" preserveAspectRatio="xMidYMid" width="18.312" height="14.69" viewBox="0 0 18.312 14.69">
  <defs>
    <style>
      .cls-1 {
        fill: #fff;
        filter: url(#color-overlay-1);
        opacity: 0.4;
        fill-rule: evenodd;
      }
    </style>

    <filter id="color-overlay-1" filterUnits="userSpaceOnUse">
      <feFlood flood-color="#60686b"/>
      <feComposite operator="in" in2="SourceGraphic"/>
      <feBlend in2="SourceGraphic" result="solidFill"/>
    </filter>
  </defs>
  <path d="M18.302,1.777 C17.994,1.945 17.069,2.281 16.208,2.365 C16.760,2.070 17.579,1.106 17.781,0.339 C17.249,0.676 16.028,1.164 15.425,1.164 L15.425,1.165 C14.737,0.455 13.769,0.012 12.695,0.012 C10.609,0.012 8.918,1.683 8.918,3.742 C8.918,4.027 8.951,4.306 9.013,4.574 L9.013,4.574 C6.183,4.501 3.088,3.100 1.226,0.704 C0.080,2.661 1.071,4.838 2.371,5.632 C1.926,5.665 1.107,5.580 0.721,5.210 C0.696,6.508 1.328,8.230 3.636,8.854 C3.191,9.091 2.404,9.023 2.063,8.973 C2.183,10.070 3.738,11.503 5.439,11.503 C4.833,12.196 2.552,13.452 -0.008,13.052 C1.731,14.096 3.757,14.701 5.901,14.701 C11.996,14.701 16.728,9.824 16.473,3.808 C16.473,3.802 16.473,3.796 16.472,3.789 C16.473,3.773 16.473,3.757 16.473,3.742 C16.473,3.722 16.472,3.705 16.471,3.687 C17.026,3.312 17.770,2.649 18.302,1.777 Z" class="cls-1"/>
</svg>
