<svg height="56.693" viewBox="0 0 56.693 56.693" width="56.693" xmlns="http://www.w3.org/2000/svg"><path d="M35.02 8.568l.548-.82.537-.807 1.21-1.812a.485.485 0 0 0-.807-.537l-1.295 1.944-.545.817-.553.828a15.96 15.96 0 0 0-5.768-1.06c-2.06 0-4.014.38-5.766 1.06l-.55-.828-.545-.817-1.297-1.945a.486.486 0 0 0-.807.537l1.21 1.813.538.808.547.82c-4.115 1.915-6.898 5.545-6.898 9.7H41.92c0-4.154-2.784-7.784-6.9-9.7zM22.533 14.39a1.454 1.454 0 1 1-.003-2.906 1.454 1.454 0 0 1 .002 2.907zm11.63 0a1.453 1.453 0 1 1 0-2.905 1.453 1.453 0 0 1 0 2.906zM14.986 20.208h-.21v21.326a3.072 3.072 0 0 0 3.07 3.07h2.216a2.904 2.904 0 0 0-.116.807V51.554a2.91 2.91 0 0 0 5.817 0V45.41c0-.28-.043-.55-.115-.807h5.4a2.904 2.904 0 0 0-.115.807V51.554c0 1.604 1.303 2.907 2.908 2.907s2.91-1.302 2.91-2.907v-6.14c0-.28-.042-.552-.116-.808h2.215a3.073 3.073 0 0 0 3.07-3.07V20.207H14.985zM9.93 20.208a2.908 2.908 0 0 0-2.91 2.91v12.438a2.91 2.91 0 0 0 5.817 0v-12.44a2.907 2.907 0 0 0-2.908-2.908zM46.767 20.208a2.907 2.907 0 0 0-2.908 2.91v12.438a2.908 2.908 0 0 0 5.813 0v-12.44c0-1.607-1.3-2.908-2.906-2.908z"></path></svg>
