<?xml version="1.0" encoding="UTF-8"?>
<!DOCTYPE svg PUBLIC "-//W3C//DTD SVG 1.1//EN" "http://www.w3.org/Graphics/SVG/1.1/DTD/svg11.dtd">
<!-- Creator: CorelDRAW -->
<svg xmlns="http://www.w3.org/2000/svg" xml:space="preserve" width="30mm" height="17mm" style="shape-rendering:geometricPrecision; text-rendering:geometricPrecision; image-rendering:optimizeQuality; fill-rule:evenodd; clip-rule:evenodd"
viewBox="0 0 30 17"
 xmlns:xlink="http://www.w3.org/1999/xlink">
 <defs>
  <style type="text/css">
   <![CDATA[
    .fil0 {fill:#CB1D23}
    .fil1 {fill:#F7DE29}
   ]]>
  </style>
 </defs>
 <g id="Layer_x0020_1">
  <metadata id="CorelCorpID_0Corel-Layer"/>
  <g id="_765049624">
   <polygon id="_774610552" class="fil0" points="-0.0002,17.0026 29.9998,17.0026 29.9998,0.0026 -0.0002,0.0026 "/>
   <polygon id="_774610336" class="fil1" points="2.8864,6.1556 3.4503,4.4589 1.9687,3.4071 3.8035,3.4038 4.3755,1.7098 4.9458,3.4044 6.781,3.4092 5.2983,4.4596 5.8608,6.1565 4.3742,5.1113 "/>
   <polygon id="_774609520" class="fil1" points="8.0028,7.0724 8.622,7.3139 9.0524,6.8186 9.0069,7.4652 9.625,7.7099 8.9781,7.8679 8.9296,8.5142 8.5748,7.9651 7.9272,8.1204 8.355,7.623 "/>
   <polygon id="_765049096" class="fil1" points="11.3547,3.8129 10.6971,3.7018 10.3823,4.273 10.2882,3.6316 9.6315,3.517 10.2306,3.232 10.1393,2.5898 10.6038,3.0551 11.2047,2.7724 10.8923,3.3456 "/>
   <polygon id="_765049912" class="fil1" points="9.9586,6.7174 10.1636,6.1004 9.6247,5.718 10.2921,5.7166 10.4999,5.1008 10.7074,5.7169 11.3748,5.7187 10.8356,6.1004 11.0402,6.7177 10.4996,6.3376 "/>
   <polygon id="_765050056" class="fil1" points="8.0352,1.0831 8.6407,1.3561 9.0971,0.8829 9.0172,1.5264 9.6212,1.8022 8.9662,1.927 8.883,2.5702 8.5587,2.0037 7.9031,2.1259 8.3572,1.6509 "/>
  </g>
 </g>
</svg>
