<?xml version="1.0" encoding="UTF-8"?>
<!DOCTYPE svg PUBLIC "-//W3C//DTD SVG 1.1//EN" "http://www.w3.org/Graphics/SVG/1.1/DTD/svg11.dtd">
<!-- Creator: CorelDRAW -->
<svg xmlns="http://www.w3.org/2000/svg" xml:space="preserve" width="30mm" height="17mm" style="shape-rendering:geometricPrecision; text-rendering:geometricPrecision; image-rendering:optimizeQuality; fill-rule:evenodd; clip-rule:evenodd"
viewBox="0 0 30 17"
 xmlns:xlink="http://www.w3.org/1999/xlink">
 <defs>
  <style type="text/css">
   <![CDATA[
    .fil2 {fill:#1A237B}
    .fil1 {fill:#BD0034}
    .fil0 {fill:white}
   ]]>
  </style>
 </defs>
 <g id="Layer_x0020_1">
  <metadata id="CorelCorpID_0Corel-Layer"/>
  <g id="_258068240">
   <polygon id="_258066056" class="fil0" points="0.032,17.102 30.0276,17.102 30.0276,-0.016 0.032,-0.016 "/>
   <polygon id="_258065528" class="fil1" points="20.1167,6.1734 30.0276,0.7461 30.0276,-0.016 29.3434,-0.016 18.0426,6.1734 "/>
   <polygon id="_258065360" class="fil1" points="19.6481,11.2577 30.0276,16.9387 30.0276,15.8025 21.7222,11.2577 "/>
   <polygon id="_258065240" class="fil1" points="0.032,1.2883 8.9104,6.1734 10.9849,6.1734 0.032,0.15 "/>
   <polygon id="_258064736" class="fil1" points="10.5158,11.2577 0.032,17.0028 0.032,17.102 1.9249,17.102 12.59,11.2577 "/>
   <polygon id="_258064568" class="fil2" points="27.976,-0.016 17.4732,-0.016 17.4732,5.7394 "/>
   <polygon id="_258064616" class="fil2" points="12.8351,-0.016 2.3749,-0.016 12.8351,5.7394 "/>
   <polygon id="_258068432" class="fil2" points="30.0276,6.1734 30.0276,2.246 22.9037,6.1734 "/>
   <polygon id="_258068528" class="fil2" points="30.0276,15.141 30.0276,11.2577 22.9037,11.2577 "/>
   <polygon id="_258068456" class="fil2" points="2.9686,17.102 12.8351,17.102 12.8351,11.6918 "/>
   <polygon id="_258067784" class="fil2" points="17.4732,17.102 27.3707,17.102 17.4732,11.6918 "/>
   <polygon id="_258067736" class="fil2" points="0.032,11.2577 0.032,15.3168 7.4046,11.2577 "/>
   <polygon id="_258067640" class="fil2" points="0.032,6.1734 7.4046,6.1734 0.032,2.1069 "/>
   <polygon id="_258068312" class="fil1" points="13.7626,-0.016 13.7626,7.1904 0.032,7.1904 0.032,10.2407 13.7626,10.2407 13.7626,17.102 16.5457,17.102 16.5457,10.2407 30.0276,10.2407 30.0276,7.1904 16.5457,7.1904 16.5457,-0.016 "/>
  </g>
 </g>
</svg>
