<?xml version="1.0" encoding="UTF-8"?>
<!DOCTYPE svg PUBLIC "-//W3C//DTD SVG 1.1//EN" "http://www.w3.org/Graphics/SVG/1.1/DTD/svg11.dtd">
<!-- Creator: CorelDRAW -->
<svg xmlns="http://www.w3.org/2000/svg" xml:space="preserve" width="30mm" height="17mm" style="shape-rendering:geometricPrecision; text-rendering:geometricPrecision; image-rendering:optimizeQuality; fill-rule:evenodd; clip-rule:evenodd"
viewBox="0 0 30 17"
 xmlns:xlink="http://www.w3.org/1999/xlink">
 <defs>
  <style type="text/css">
   <![CDATA[
    .fil0 {fill:black}
    .fil4 {fill:#CA001C}
    .fil1 {fill:#E1001F}
    .fil5 {fill:#F0F7FF}
    .fil3 {fill:#F6D728}
    .fil2 {fill:#F6D928}
   ]]>
  </style>
 </defs>
 <g id="Layer_x0020_1">
  <metadata id="CorelCorpID_0Corel-Layer"/>
  <g id="_258065360">
   <polygon id="_774445008" class="fil0" points="0.0002,5.6658 30.0002,5.6658 30.0002,-0.0009 0.0002,-0.0009 "/>
   <polygon id="_774444864" class="fil1" points="0.0002,11.3326 30.0002,11.3326 30.0002,5.6658 0.0002,5.6658 "/>
   <polygon id="_774445152" class="fil2" points="0.0002,16.9991 30.0002,16.9991 30.0002,11.3326 0.0002,11.3326 "/>
   <path id="_774445248" class="fil3" d="M10.8475 4.0235l0 6.8048c0,2.5468 3.5234,2.2413 4.1525,3.2599 0.6294,-1.0187 4.1527,-0.713 4.1527,-3.2599l0 -6.8048 -8.3052 0z"/>
   <path id="_774444192" class="fil0" d="M15 14.1376l-0.0225 -0.0363c-0.2223,-0.3601 -0.814,-0.5508 -1.4991,-0.7717 -1.1837,-0.3816 -2.6571,-0.8564 -2.6571,-2.5013l0 -6.8302 8.3577 0 0 6.8302c0,1.6449 -1.4735,2.1198 -2.6574,2.5013 -0.685,0.2209 -1.2767,0.4117 -1.499,0.7718l-0.0226 0.0362zm-4.1262 -10.0885l0 6.7792c0,1.6079 1.3926,2.0569 2.6212,2.4532 0.6736,0.217 1.2581,0.4054 1.505,0.7593 0.2471,-0.3538 0.8315,-0.5422 1.5051,-0.7593 1.2289,-0.3963 2.6214,-0.8452 2.6214,-2.4532l0.0001 -6.7792 -8.2528 0z"/>
   <path id="_774444576" class="fil0" d="M14.7274 5.0018c0.0418,0.2035 -0.042,0.6924 -0.1466,0.8557 -0.1049,0.1628 -0.3775,0.4684 -0.3987,0.7742 -0.1049,1.528 0.4825,3.7484 0.8179,5.3377 0.3357,-1.5893 0.9231,-3.8097 0.8181,-5.3377 -0.105,-1.5284 -0.3144,-1.9357 -0.3144,-1.9357l-0.7763 0.3058z"/>
   <path id="_774444096" class="fil4" d="M14.8112 5.2258c-0.3913,-0.0274 -0.7199,-0.1019 -0.9855,-0.224 0.1117,0.1357 0.3635,0.2443 0.7548,0.3257l0.2307 -0.1017z"/>
   <path id="_774444288" class="fil0" d="M14.5834 5.315c-0.3986,-0.0568 -0.655,-0.168 -0.7679,-0.3053 0.2785,0.1013 0.6085,0.1764 0.9966,0.2035l-0.0018 0.0253c-0.3916,-0.0274 -0.7247,-0.1032 -0.9902,-0.2252 0.1248,0.1132 0.3763,0.2213 0.7632,0.3017l0.0001 0z"/>
   <path id="_774463032" class="fil4" d="M14.6855 4.3903c-0.629,-0.3055 -1.0067,0.0408 -0.5871,0.591 0.0419,-0.102 0.4402,-0.2447 0.6289,0.2446 -0.0975,0.0543 -0.3286,0.0609 -0.692,0.0202 0.1887,0.1426 0.7551,0.1632 0.8601,0.1019 0.1046,-0.0613 -0.1888,-0.5703 -0.1888,-0.5703l-0.0211 -0.3874z"/>
   <path id="_774463056" class="fil0" d="M14.6551 5.3929c-0.215,0 -0.502,-0.0416 -0.6279,-0.1367 0.3698,0.0179 0.5992,0.0113 0.6937,-0.0414 -0.1182,-0.2758 -0.2973,-0.321 -0.3941,-0.3218 -0.0013,0 -0.0025,-0.0002 -0.0036,-0.0002 -0.1124,0 -0.1969,0.0547 -0.2128,0.0933 -0.2124,-0.2462 -0.255,-0.4766 -0.1365,-0.6135 0.1285,-0.1484 0.4036,-0.1458 0.7173,0.0064l-0.0115 0.0228c-0.2987,-0.1451 -0.5678,-0.1497 -0.6858,-0.013 -0.11,0.1274 -0.0671,0.3461 0.115,0.5849 -0.0007,-0.051 0.1057,-0.1062 0.2182,-0.1062 0.1034,0.001 0.2946,0.0484 0.4126,0.3539 -0.107,0.0715 -0.3353,0.0786 -0.706,0.0374 0.1917,0.1145 0.7525,0.1375 0.8549,0.0782 0.0682,-0.0398 -0.0826,-0.3604 -0.1935,-0.5531 0.073,0.0743 0.317,0.5107 0.2069,0.5751 -0.0378,0.022 -0.1321,0.034 -0.2469,0.034l0 -0.0001z"/>
   <path id="_774462504" class="fil0" d="M15.4617 4.8183c0.1046,-0.0204 0.2726,-0.0817 0.3983,-0.2039 -0.2306,0 -0.6502,-0.122 -0.8181,-0.2034 -0.1677,-0.0819 -0.4611,-0.2649 -0.4611,0.0814 0,0.3462 0.3773,0.611 0.3146,0.8964l0.5663 -0.5705z"/>
   <path id="_774463080" class="fil5" d="M14.9373 4.5942c0,0 -0.21,-0.1018 -0.2519,-0.1425 -0.0418,-0.0407 -0.1046,0.224 0.0838,0.3055 0.0282,-0.0678 0.0843,-0.1222 0.1681,-0.1629l0 -0.0001z"/>
   <path id="_774462480" class="fil0" d="M14.7904 4.4718c-0.0978,0.0273 -0.119,0.102 -0.0631,0.2242 0.0142,-0.0949 0.0839,-0.1561 0.21,-0.1835l-0.1469 -0.0407z"/>
   <path id="_774462912" class="fil0" d="M15.9231 7.2427l0 2.4042 2.8103 2.2411 0 -5.9697c0,-0.4615 -0.0981,-0.7741 -0.2938,-0.937l0 1.2429 -2.5165 1.0185z"/>
   <polygon id="_774462936" class="fil3" points="16.4864,11.6231 16.4079,11.6231 16.4079,6.5297 16.4864,6.5297 "/>
   <polygon id="_774462576" class="fil3" points="17.0739,11.6231 16.9953,11.6231 16.9953,6.5297 17.0739,6.5297 "/>
   <polygon id="_774462432" class="fil3" points="17.6611,11.6231 17.5824,11.6231 17.5824,6.5297 17.6611,6.5297 "/>
   <polygon id="_774463008" class="fil3" points="18.2481,11.6231 18.1697,11.6231 18.1697,6.5297 18.2481,6.5297 "/>
   <path id="_774462312" class="fil0" d="M15.3776 7.691c1.8877,0 2.6844,-0.5909 3.0831,-1.0391l0 -1.6501c0.2095,-0.0545 0.3215,-0.2039 0.3357,-0.4482 -0.5876,0.4683 -1.5103,-0.6316 -2.0555,0.509 0.2937,0.5708 0.8808,0.5095 1.0904,0.1835 0.4198,0.3465 0.0842,1.6504 -2.4538,1.6299l0.0001 0.815z"/>
   <path id="_774462024" class="fil4" d="M16.0696 11.6843c-0.1465,0.1835 -0.0208,0.3463 0.1049,0.4075 -0.0419,-0.1224 -0.0207,-0.2377 0.0631,-0.3466l-0.168 -0.0609z"/>
   <path id="_774461760" class="fil0" d="M16.1871 12.0879c-0.0868,-0.0179 -0.1681,-0.0881 -0.1906,-0.1848 -0.0175,-0.0748 0.0042,-0.1532 0.0627,-0.2266l0.0207 0.0156c-0.0543,0.0679 -0.0737,0.1372 -0.0578,0.2054 0.0205,0.0881 0.0952,0.1522 0.1582,0.1829 -0.0612,-0.1104 -0.0393,-0.231 0.0468,-0.3428 -0.0608,0.1216 -0.0809,0.2311 -0.04,0.3504l0 -0.0001z"/>
   <path id="_774462168" class="fil4" d="M16.8036 12.3768c0.0141,0.0815 -0.0279,0.1834 -0.1258,0.3055 0.2519,-0.0608 0.3568,-0.1426 0.2727,-0.2849l-0.1469 -0.0206z"/>
   <path id="_774462216" class="fil0" d="M16.6811 12.6947c0.0814,-0.1388 0.123,-0.2383 0.1097,-0.3159l0.0256 -0.0041c0.0148,0.0848 -0.0283,0.1909 -0.1282,0.3156 0.1538,-0.0608 0.2437,-0.1073 0.2698,-0.1667 0.015,-0.0339 0.0086,-0.0733 -0.019,-0.1199 0.0548,0.0416 0.0614,0.0881 0.0431,0.1299 -0.0294,0.0672 -0.1252,0.1186 -0.3011,0.1611l0.0001 0z"/>
   <path id="_774462408" class="fil4" d="M17.6429 12.0713c0.0419,0.0951 0.0485,0.2036 0.0207,0.3261 0.1888,-0.1633 0.2519,-0.3873 0.105,-0.428l-0.1257 0.1019z"/>
   <path id="_774461856" class="fil0" d="M17.6724 12.4069c0.0055,-0.1317 -0.0012,-0.2388 -0.0415,-0.3307l0.0239 -0.0099c0.0429,0.0966 0.05,0.2091 0.0217,0.3338 0.1025,-0.1196 0.1775,-0.2616 0.1567,-0.35 -0.0082,-0.0352 -0.0312,-0.0582 -0.0682,-0.0684 0.0538,-0.0117 0.0834,0.0187 0.0938,0.0628 0.0233,0.0985 -0.0536,0.2474 -0.1864,0.3624l0 0z"/>
   <path id="_774461832" class="fil4" d="M17.6217 11.3378c0.0698,0.0136 0.1399,0.0818 0.2096,0.2039 0.0211,-0.2242 -0.0208,-0.3466 -0.2308,-0.3874l0.0212 0.1835z"/>
   <path id="_774461712" class="fil0" d="M17.8444 11.5428c-0.0919,-0.1133 -0.1596,-0.1797 -0.2254,-0.1925l0.0054 -0.025c0.0735,0.0143 0.1471,0.0852 0.2183,0.2102 -0.0019,-0.2349 -0.0595,-0.3327 -0.2447,-0.3686 0.2334,0.0193 0.2666,0.1612 0.2464,0.3759l0 0z"/>
   <path id="_774462384" class="fil4" d="M15.7762 10.6654l0.9858 0.8763c0,0 -0.3775,0.0814 -0.5244,0.0814 -0.1468,0 -0.2726,0.0407 -0.2306,0.0814 0.0419,0.0406 0.1256,0.0407 0.1675,0.102 0.0419,0.0613 0.105,0.1427 0.1888,0.0613 0.0839,-0.0818 0.3776,-0.1633 0.3776,-0.1633 0,0 0,0.4688 -0.0212,0.5296 -0.0207,0.0613 -0.0838,0.1835 -0.0419,0.1835 0.042,-0.0001 0.0419,-0.0202 0.21,0 0.1676,0.0204 0.1468,0.0612 0.1049,-0.1835 -0.0422,-0.2443 -0.0211,-0.509 -0.0211,-0.509 0,0 0.3776,0.2443 0.5033,0.4075 0.1257,0.1628 0.1049,0.0407 0.168,-0.0206 0.0626,-0.0613 0.1465,-0.0814 0.2095,-0.1019 0.0631,-0.0203 -0.1676,-0.0814 -0.2307,-0.1221 -0.063,-0.0409 -0.5452,-0.3056 -0.5452,-0.3056 0.0001,0 0.2727,-0.0814 0.4403,-0.1019 0.168,-0.0203 0.168,-0.0203 0.1468,-0.102 -0.0207,-0.0814 0,-0.1629 0,-0.2036 0,-0.0407 -0.0207,-0.0814 -0.1257,0 -0.1049,0.0814 -0.5874,0.2853 -0.5874,0.2853l-0.8179 -1.0595 -0.3564 0.2647z"/>
   <path id="_774461928" class="fil0" d="M16.9991 12.4461c-0.0122,0 -0.0277,-0.0025 -0.0479,-0.006l-0.0651 -0.0099c-0.119,-0.0146 -0.1519,-0.0082 -0.1757,-0.0036l-0.0542 -0.0068c-0.0148,-0.0213 0.0019,-0.0664 0.0311,-0.1383l0.0199 -0.0513c0.0168,-0.0482 0.0205,-0.3919 0.0207,-0.5234 -0.0129,0.0184 -0.2787,0.095 -0.3553,0.17 -0.0285,0.0277 -0.0547,0.041 -0.0875,0.0375 -0.0495,-0.0049 -0.0877,-0.0512 -0.1214,-0.1007 -0.0219,-0.0321 -0.0577,-0.0461 -0.0921,-0.0596 -0.028,-0.011 -0.0543,-0.0214 -0.0741,-0.0404l-0.0061 -0.0062 -0.0033 -0.0308c0.0183,-0.0431 0.1422,-0.0661 0.2495,-0.0661 0.1437,0 0.5179,-0.0805 0.5216,-0.0814l-0.9918 -0.8542 0.0176 -0.0188 0.9858 0.8761c-0.0214,0.0251 -0.3865,0.1036 -0.5332,0.1036 -0.1263,-0.0001 -0.2162,0.0296 -0.2252,0.0507 0.0197,0.0245 0.0436,0.0339 0.069,0.0438 0.0365,0.0142 0.0777,0.0305 0.104,0.0692 0.0303,0.0442 0.0638,0.0857 0.1024,0.0894 0.0215,0.0015 0.0431,-0.0077 0.0662,-0.0302 0.0853,-0.0832 0.3712,-0.1631 0.3834,-0.1665 0.0166,0.0315 0.0164,0.4838 -0.0051,0.5461l-0.0207 0.0527c-0.0135,0.0332 -0.0417,0.1025 -0.0338,0.1144 0.0535,-0.0086 0.0888,-0.0153 0.2115,-0.0005l0.0665 0.01c0.0222,0.0037 0.0471,0.0086 0.0514,0.0046 0.0058,-0.0059 -0.0019,-0.0457 -0.0106,-0.0918l-0.0167 -0.0916c-0.0421,-0.2428 -0.0215,-0.5093 -0.0214,-0.512 0.0358,0.0005 0.4012,0.2377 0.5269,0.4007 0.049,0.0635 0.0599,0.0697 0.081,0.0762 0.0085,-0.0007 0.0175,-0.0185 0.0261,-0.0358 0.0097,-0.0193 0.0216,-0.0433 0.0411,-0.0622 0.057,-0.0557 0.1309,-0.0787 0.1903,-0.0972 0.02,-0.0129 -0.0451,-0.0376 -0.0881,-0.0542 -0.0472,-0.0183 -0.0963,-0.0368 -0.1212,-0.0531 -0.0631,-0.0407 -0.5446,-0.305 -0.5446,-0.305 0.0055,-0.0241 0.2782,-0.1052 0.4452,-0.1257 0.0855,-0.0104 0.1328,-0.0159 0.1425,-0.0294 0.0057,-0.0085 0.0008,-0.0275 -0.0068,-0.0568 -0.0154,-0.0608 -0.0087,-0.121 -0.0038,-0.1651 0.0018,-0.0164 0.0035,-0.0305 0.0035,-0.0416 -0.0187,-0.0359 -0.0421,-0.0383 -0.1045,0.0099 -0.105,0.0816 -0.5707,0.2787 -0.5904,0.2871l-0.8336 -1.0636 0.8388 1.044c-0.002,-0.0096 0.4673,-0.2086 0.5689,-0.2873 0.0548,-0.0428 0.0945,-0.0579 0.1204,-0.0457 0.0121,0.0055 0.0265,0.0198 0.0265,0.0556 0,0.0118 -0.0016,0.0269 -0.0036,0.0445 -0.0047,0.0421 -0.011,0.0997 0.0032,0.156 0.0097,0.0372 0.0155,0.0596 0.0029,0.0774 -0.0162,0.0228 -0.0556,0.0277 -0.1608,0.0403 -0.1529,0.0187 -0.3974,0.0895 -0.4336,0.1001 0.0492,0.0061 0.4845,0.2456 0.5442,0.2841 0.0227,0.0147 0.0704,0.033 0.1165,0.0507 0.0974,0.0372 0.1314,0.0521 0.1309,0.0739l-0.0445 0.028c-0.0596,0.0186 -0.1272,0.0397 -0.1797,0.091 -0.0164,0.0158 -0.0269,0.037 -0.0361,0.0556 -0.0128,0.0255 -0.0239,0.0477 -0.0472,0.0498 -0.0253,0.0008 -0.0552,-0.022 -0.1046,-0.086 -0.1164,-0.1512 -0.4571,-0.3766 -0.4965,-0.4022 0.0141,0.0272 -0.0008,0.2708 0.0378,0.4941l0.0167 0.0906c0.0139,0.0723 0.019,0.0992 0.0035,0.1144 -0.0066,0.0065 -0.0151,0.0089 -0.0267,0.0089l0 0z"/>
   <path id="_774461544" class="fil0" d="M15 13.3143l0.4406 -0.5095c0.5033,0.2987 0.8738,0.2173 1.1116,-0.2446 -0.7551,0.1221 -1.1116,-0.5433 -1.0697,-1.9967l0.5664 0.8557 0 -0.7945 0.692 0.0815 -1.8247 -1.8948 0.0838 4.5029z"/>
   <path id="_774461328" class="fil0" d="M14.0772 7.2427l0 2.4042 -2.8101 2.2411 0 -5.9697c0,-0.4615 0.0978,-0.7741 0.2937,-0.937l0 1.2429 2.5164 1.0185z"/>
   <polygon id="_774461160" class="fil3" points="13.5924,11.6231 13.5139,11.6231 13.5139,6.5297 13.5924,6.5297 "/>
   <polygon id="_774461112" class="fil3" points="13.005,11.6231 12.9264,11.6231 12.9264,6.5297 13.005,6.5297 "/>
   <polygon id="_774461064" class="fil3" points="12.4179,11.6231 12.3393,11.6231 12.3393,6.5297 12.4179,6.5297 "/>
   <polygon id="_774461400" class="fil3" points="11.8304,11.6231 11.7519,11.6231 11.7519,6.5297 11.8304,6.5297 "/>
   <path id="_774460992" class="fil0" d="M14.6228 7.691c-1.8878,0 -2.6849,-0.5909 -3.0832,-1.0391l0 -1.6501c-0.2099,-0.0545 -0.3215,-0.2039 -0.3356,-0.4482 0.5871,0.4683 1.5102,-0.6316 2.0554,0.509 -0.2937,0.5708 -0.8809,0.5095 -1.0907,0.1835 -0.4195,0.3465 -0.0839,1.6504 2.454,1.6299l0.0001 0.815z"/>
   <path id="_774461448" class="fil4" d="M13.9304 11.6843c0.1468,0.1835 0.0211,0.3463 -0.1047,0.4075 0.0419,-0.1224 0.0208,-0.2377 -0.063,-0.3466l0.1677 -0.0609z"/>
   <path id="_774461280" class="fil0" d="M13.8316 12.1033c0.0224,-0.1346 0.0024,-0.2441 -0.0795,-0.3503 0.1073,0.0964 0.129,0.217 0.0861,0.3428 0.0448,-0.0461 0.1194,-0.1102 0.1399,-0.1983 0.016,-0.0682 -0.0036,-0.1374 -0.0581,-0.2053l0.0207 -0.0157c0.0587,0.0733 0.0805,0.1518 0.0631,0.2266 -0.0226,0.0967 -0.1037,0.1669 -0.1722,0.2002l0 0z"/>
   <path id="_774461496" class="fil4" d="M13.1964 12.3768c-0.0137,0.0815 0.0281,0.1834 0.126,0.3055 -0.2518,-0.0608 -0.3567,-0.1426 -0.2729,-0.2849l0.1469 -0.0206z"/>
   <path id="_774460704" class="fil0" d="M13.3329 12.6745c-0.1896,-0.0224 -0.2854,-0.0736 -0.3149,-0.1409 -0.0183,-0.0418 -0.0119,-0.0883 0.02,-0.1425 -0.0047,0.0592 -0.0109,0.0986 0.0041,0.1325 0.0261,0.0593 0.1162,0.1059 0.2835,0.1464 -0.1133,-0.1042 -0.1565,-0.2103 -0.1421,-0.2952l0.0258 0.004c-0.0131,0.0777 0.0285,0.1771 0.1236,0.2957l0 0z"/>
   <path id="_774460800" class="fil4" d="M12.3575 12.0713c-0.042,0.0951 -0.049,0.2036 -0.0209,0.3261 -0.1887,-0.1633 -0.2518,-0.3873 -0.105,-0.428l0.1259 0.1019z"/>
   <path id="_774460680" class="fil0" d="M12.3495 12.3946c-0.1545,-0.1027 -0.2312,-0.2516 -0.2079,-0.3501 0.0103,-0.0444 0.0402,-0.0746 0.0866,-0.0874 -0.03,0.0348 -0.0528,0.0578 -0.0612,0.093 -0.0207,0.0884 0.0543,0.2304 0.1783,0.3377 -0.0501,-0.1119 -0.0428,-0.2243 0.0001,-0.3214l0.024 0.0098c-0.0406,0.0924 -0.0474,0.1996 -0.0199,0.3184l0 0z"/>
   <path id="_774460128" class="fil4" d="M12.3785 11.3378c-0.07,0.0136 -0.1398,0.0818 -0.2098,0.2039 -0.0208,-0.2242 0.0211,-0.3466 0.2307,-0.3874l-0.0209 0.1835z"/>
   <path id="_774460368" class="fil0" d="M12.1801 11.5478c-0.0444,-0.2199 -0.0111,-0.3616 0.2165,-0.4059 -0.1795,0.0608 -0.2371,0.1587 -0.215,0.3986 0.0485,-0.1319 0.1201,-0.2006 0.1943,-0.2152l0.0053 0.025c-0.0655,0.0128 -0.1331,0.0791 -0.2011,0.1975l0 0z"/>
   <path id="_258068240" class="fil4" d="M14.224 10.6654l-0.9857 0.8763c0,0 0.3775,0.0814 0.5244,0.0814 0.1469,0 0.2726,0.0407 0.2307,0.0814 -0.0419,0.0406 -0.1258,0.0407 -0.1677,0.102 -0.0419,0.0613 -0.105,0.1427 -0.1888,0.0613 -0.0837,-0.0818 -0.3775,-0.1633 -0.3775,-0.1633 0.0001,0 0,0.4688 0.0207,0.5296 0.0212,0.0613 0.0843,0.1835 0.0423,0.1835 -0.0422,-0.0001 -0.0423,-0.0202 -0.2098,0 -0.1677,0.0204 -0.1469,0.0612 -0.105,-0.1835 0.0419,-0.2443 0.0211,-0.509 0.0211,-0.509 0,0 -0.3775,0.2443 -0.5033,0.4075 -0.1257,0.1628 -0.105,0.0407 -0.168,-0.0206 -0.0627,-0.0613 -0.1465,-0.0814 -0.2095,-0.1019 -0.0631,-0.0203 0.1676,-0.0814 0.2306,-0.1221 0.0628,-0.0409 0.5452,-0.3056 0.5452,-0.3056 0.0001,0 -0.2725,-0.0814 -0.4402,-0.1019 -0.168,-0.0203 -0.168,-0.0203 -0.1469,-0.102 0.0209,-0.0814 0,-0.1629 0,-0.2036 0,-0.0407 0.0208,-0.0814 0.1258,0 0.105,0.0814 0.5871,0.2853 0.5871,0.2853l0.8181 -1.0595 0.3564 0.2647z"/>
   <path id="_258066056" class="fil0" d="M13.0012 12.4461c-0.0116,0 -0.02,-0.0024 -0.0268,-0.0089 -0.0154,-0.0152 -0.0103,-0.0421 0.0036,-0.1143l0.0168 -0.0908c0.0388,-0.2275 0.023,-0.476 0.021,-0.5036 -0.0126,0.0285 -0.3619,0.2585 -0.4798,0.4118 -0.0495,0.0639 -0.0793,0.0869 -0.1046,0.086 -0.0232,-0.0022 -0.0344,-0.0242 -0.0472,-0.0498 -0.0091,-0.0186 -0.0198,-0.0397 -0.0361,-0.0554 -0.0525,-0.0515 -0.1201,-0.0726 -0.1797,-0.0912l-0.0444 -0.028c-0.0006,-0.0218 0.0334,-0.0367 0.1307,-0.0739 0.0462,-0.0177 0.0939,-0.036 0.1166,-0.0507 0.0583,-0.038 0.4804,-0.2699 0.5392,-0.3023 -0.0446,0.0012 -0.2795,-0.0637 -0.4286,-0.0819 -0.1052,-0.0127 -0.1446,-0.0175 -0.1607,-0.0403 -0.0127,-0.0179 -0.007,-0.0402 0.0027,-0.0774 0.0144,-0.0563 0.008,-0.1139 0.0032,-0.156 -0.0018,-0.0177 -0.0035,-0.0327 -0.0035,-0.0445 0,-0.0358 0.0144,-0.05 0.0264,-0.0556 0.0261,-0.0123 0.0657,0.003 0.1204,0.0457 0.1026,0.0793 0.5795,0.2816 0.5844,0.2836l0.8023 -1.0557 -0.797 1.075c-0.0356,-0.0044 -0.5009,-0.2014 -0.6058,-0.2831 -0.0624,-0.0483 -0.0856,-0.0463 -0.0928,-0.0426 -0.0118,0.0438 -0.0101,0.058 -0.0083,0.0743 0.005,0.0441 0.0116,0.1043 -0.0039,0.1651 -0.0076,0.0292 -0.0125,0.0483 -0.0067,0.0568 0.0098,0.0135 0.0569,0.0191 0.1425,0.0294 0.1669,0.0205 0.4398,0.1016 0.4425,0.1025 0.0027,0.0231 -0.4791,0.2875 -0.5418,0.3282 -0.0251,0.0163 -0.074,0.0349 -0.1214,0.0531 -0.0429,0.0166 -0.1079,0.0414 -0.1148,0.0523 0.0861,0.0203 0.1601,0.0434 0.2172,0.0991 0.0193,0.0188 0.0313,0.0429 0.041,0.0622 0.0087,0.0173 0.0176,0.0351 0.026,0.0358 0.0149,-0.0065 0.032,-0.0125 0.081,-0.0762 0.1258,-0.1631 0.4912,-0.4002 0.5067,-0.4103 0.0204,0.0123 0.0407,0.2788 -0.0011,0.5217l-0.0167 0.0915c-0.0088,0.046 -0.0164,0.0859 -0.0105,0.0918 0.0041,0.0039 0.0292,-0.0009 0.0514,-0.0045l0.0664 -0.0101c0.1224,-0.0146 0.1578,-0.0081 0.1836,-0.0032 0.0358,-0.0084 0.0072,-0.0783 -0.0065,-0.1117l-0.0204 -0.0518c-0.0211,-0.0622 -0.0213,-0.5145 -0.0213,-0.5337 0.0297,-0.0084 0.3144,0.0712 0.3999,0.1542 0.0231,0.0225 0.0458,0.0318 0.0663,0.0302 0.0385,-0.0037 0.0719,-0.0451 0.1022,-0.0894 0.0265,-0.0387 0.0677,-0.055 0.1041,-0.0692 0.0253,-0.0099 0.0493,-0.0192 0.0652,-0.0348 -0.0051,-0.0301 -0.0952,-0.0597 -0.2214,-0.0597 -0.1466,-0.0001 -0.5117,-0.0784 -0.5273,-0.0816l0.9799 -0.8981 0.0176 0.0188 -0.9828 0.8736c0.0329,-0.0118 0.3768,0.062 0.5126,0.062 0.1073,0 0.2312,0.023 0.2495,0.0661l0.0034 0.0079 -0.0129 0.0291c-0.0197,0.0189 -0.0459,0.0295 -0.0739,0.0404 -0.0346,0.0135 -0.0703,0.0276 -0.0921,0.0596 -0.0339,0.0495 -0.0721,0.0959 -0.1216,0.1007 -0.0302,0.0035 -0.0588,-0.0098 -0.0875,-0.0375 -0.0804,-0.0785 -0.3688,-0.1593 -0.3717,-0.16 0.0166,0.1175 0.0202,0.465 0.0368,0.5135l0.0197 0.0502c0.0296,0.0723 0.0466,0.1179 0.0317,0.1392l-0.0544 0.0069c-0.0241,-0.0045 -0.0576,-0.0106 -0.1756,0.0036l-0.0649 0.0098c-0.0203,0.0035 -0.0358,0.0061 -0.048,0.0061l0 0z"/>
   <path id="_258065528" class="fil0" d="M15 13.3143l-0.4402 -0.5095c-0.5033,0.2987 -0.8739,0.2173 -1.1116,-0.2446 0.7551,0.1221 1.1116,-0.5433 1.0696,-1.9967l-0.5663 0.8557 0 -0.7945 -0.692 0.0815 1.8247 -1.8948 -0.0842 4.5029z"/>
  </g>
 </g>
</svg>
