<svg xmlns="http://www.w3.org/2000/svg" xmlns:xlink="http://www.w3.org/1999/xlink" preserveAspectRatio="xMidYMid" width="25.469" height="23.438" viewBox="0 0 25.469 23.438">
  <defs>
    <style>
      .cls-1 {
        fill: #23bdaa;
        fill-rule: evenodd;
      }
    </style>
  </defs>
  <path d="M12.740,23.437 C12.514,23.437 12.298,23.343 12.147,23.177 C9.715,20.510 1.768,11.793 1.666,11.673 C0.582,10.374 -0.000,8.782 -0.000,7.159 C-0.000,3.212 3.337,0.000 7.437,0.000 C9.457,0.000 11.339,0.766 12.730,2.129 C14.121,0.766 16.003,0.000 18.023,0.000 C22.124,0.000 25.460,3.212 25.460,7.159 C25.460,8.782 24.879,10.372 23.823,11.637 L13.334,23.177 C13.183,23.342 12.967,23.437 12.741,23.437 L12.740,23.437 ZM7.437,1.563 C4.214,1.563 1.591,4.073 1.591,7.159 C1.591,8.440 2.033,9.647 2.870,10.649 C3.061,10.867 9.098,17.491 12.740,21.484 L22.614,10.622 C23.427,9.646 23.869,8.440 23.869,7.159 C23.869,4.073 21.246,1.563 18.023,1.563 C16.176,1.563 14.476,2.373 13.359,3.787 C13.057,4.168 12.403,4.168 12.102,3.787 C10.984,2.373 9.284,1.563 7.437,1.563 Z" class="cls-1"/>
</svg>
