<svg xmlns="http://www.w3.org/2000/svg" xmlns:xlink="http://www.w3.org/1999/xlink" preserveAspectRatio="xMidYMid" width="15.313" height="18" viewBox="0 0 15.313 18">
  <defs>
    <style>
      .cls-1 {
        fill: #fff;
        filter: url(#color-overlay-1);
        opacity: 0.4;
        fill-rule: evenodd;
      }
    </style>

    <filter id="color-overlay-1" filterUnits="userSpaceOnUse">
      <feFlood flood-color="#60686b"/>
      <feComposite operator="in" in2="SourceGraphic"/>
      <feBlend in2="SourceGraphic" result="solidFill"/>
    </filter>
  </defs>
  <path d="M6.409,12.603 C6.803,13.338 7.957,13.987 9.184,13.987 C12.838,13.987 15.316,10.731 15.316,6.369 C15.316,3.075 12.462,0.004 8.121,0.004 C2.722,0.004 -0.001,3.790 -0.001,6.947 C-0.001,8.859 0.740,10.559 2.327,11.191 C2.587,11.294 2.820,11.196 2.896,10.915 C2.949,10.718 3.070,10.227 3.126,10.022 C3.203,9.743 3.174,9.646 2.964,9.402 C2.507,8.875 2.213,8.190 2.213,7.223 C2.213,4.415 4.363,1.900 7.809,1.900 C10.861,1.900 12.536,3.724 12.536,6.158 C12.536,9.364 11.088,12.067 8.935,12.067 C7.747,12.067 6.857,11.105 7.140,9.926 C7.483,8.519 8.145,7.000 8.145,5.985 C8.145,5.076 7.646,4.314 6.612,4.314 C5.397,4.314 4.420,5.546 4.420,7.191 C4.420,8.239 4.783,8.950 4.783,8.950 C4.783,8.950 3.539,14.105 3.319,15.006 C3.121,15.839 3.091,16.757 3.120,17.527 C3.562,17.714 4.021,17.869 4.490,18.000 C4.914,17.337 5.372,16.497 5.608,15.655 C5.747,15.160 6.409,12.603 6.409,12.603 Z" class="cls-1"/>
</svg>
