<svg xmlns="http://www.w3.org/2000/svg"><defs><style/><style/></defs><symbol id="icon-facebook@round" viewBox="0 0 2048 2048"><path class="fil0" d="M680.532 762.667h180.266V533.333c0-.7.045-1.39.132-2.067 3.715-70.48 17.96-134.177 50.795-180.936 34.057-48.502 87.01-78.332 167.06-78.332h288.683c8.836 0 16 7.165 16 16v231.158c0 8.835-7.164 16-16 16H1253.51c-29.394 0-51.45 4.502-65.756 16.317l-10.187-12.312 10.187 12.338c-.31.255-.626.495-.947.724-13.261 11.504-20.737 30.838-22.362 60.738h.023v149.705h203c8.835 0 16 7.165 16 16V1024c0 8.836-7.165 16-16 16h-203v720.002c0 8.836-7.165 16-16 16h-271.67c-8.836 0-16-7.164-16-16V1040H680.532c-8.836 0-16-7.165-16-16V778.665c0-8.835 7.164-16 16-16z"/></symbol><symbol id="icon-flag" viewBox="0 0 15 21"><path d="M1 1h13v19l-6.5-5.542L1 20V1z"/></symbol><symbol id="icon-globe" viewBox="0 0 15 21"><path d="M25.422 22.756c2.844-2.844 4.444-6.756 4.444-10.844 0-3.733-1.422-7.289-3.733-9.956.356-.356.356-1.067 0-1.6-.356-.356-1.067-.356-1.6 0L22.4 2.489l1.6 1.6.711-.711c1.956 2.311 3.2 5.333 3.2 8.533 0 3.556-1.422 6.756-3.911 9.244s-5.689 3.911-9.244 3.911c-3.2 0-6.044-1.067-8.533-3.2l.533-.533c-.533-.533-1.067-.889-1.6-1.6l-2.311 2.311c-.356.356-.356 1.067 0 1.6.178.178.533.356.711.356s.533-.178.711-.356c2.489 2.133 5.689 3.556 8.889 3.733v2.667H8.889c-.533 0-1.067.533-1.067 1.067S8.178 32 8.889 32h11.378c.533 0 1.067-.533 1.067-1.067s-.533-1.067-1.067-1.067h-4.622v-2.667c3.733-.356 7.111-1.778 9.778-4.444zm-10.844.355c-6.222 0-11.2-4.978-11.2-11.2s4.978-11.2 11.2-11.2 11.2 4.978 11.2 11.2-4.978 11.2-11.2 11.2zm0-19.911c-4.8 0-8.711 3.911-8.711 8.711s3.911 8.711 8.711 8.711 8.711-3.911 8.711-8.711S19.378 3.2 14.578 3.2z"/></symbol><symbol id="icon-google" viewBox="0 0 16.812 15.06"><path d="M14.266 3.576v2.519h-1.195V3.576h-2.552V2.515h2.552V.028h1.195v2.487h2.549v1.061h-2.549zM7.729.9c1.052 0 1.613 1.235 1.613 2.448 0 1.017-.585 1.557-1.413 2.179-.807.608-.96.862-.96 1.379 0 .44.865 1.19 1.317 1.499 1.32.901 1.749 1.763 1.749 3.16 0 1.74-1.749 3.501-4.915 3.501-2.777 0-5.12-1.036-5.12-2.775C0 10.523 2.137 8.93 4.913 8.93h.868c-.379-.357-.681-.88-.681-1.417 0-.321.105-.702.254-.974-.152.01-.306.084-.464.084-2.281 0-3.809-1.423-3.809-3.363 0-1.895 2.11-3.252 4.353-3.252h5.001L9.315.9H7.729zM5.442 9.156c-1.919-.021-3.638 1.128-3.638 2.506 0 1.407 1.387 2.577 3.306 2.577 2.698 0 3.639-1.099 3.639-2.506 0-.168-.022-.334-.061-.495-.211-.796-.959-1.191-2.001-1.89a4.348 4.348 0 0 0-1.245-.192zm2.102-6.051C7.321 1.475 6.096.429 4.808.392 3.52.355 2.656 1.341 2.879 2.971c.221 1.631 1.446 2.983 2.735 3.02 1.288.036 2.151-1.255 1.93-2.886z"/></symbol><symbol id="icon-google@round" viewBox="0 0 512 512"><path d="M317.686 229.75a159.492 159.492 0 0 1 2.709 29.398C320.395 339.125 266.852 396 186 396c-77.349 0-140-62.651-140-140s62.651-140 140-140c37.803 0 69.385 13.911 93.627 36.487l-39.469 39.465v-.09c-14.697-14.001-33.333-21.174-54.158-21.174-46.198 0-83.736 39.024-83.736 85.227 0 46.194 37.538 85.312 83.736 85.312 41.913 0 70.436-23.977 76.307-56.875H186V229.75h131.686zm104.564 8.75v-43.75h-35v43.75H343.5v35h43.75v43.75h35V273.5H466v-35h-43.75z"/></symbol><symbol id="icon-heart" viewBox="0 0 25.469 23.438"><path d="M12.74 23.437a.801.801 0 0 1-.593-.26A11185.597 11185.597 0 0 1 1.666 11.673C.582 10.374 0 8.782 0 7.159 0 3.212 3.337 0 7.437 0c2.02 0 3.902.766 5.293 2.129C14.121.766 16.003 0 18.023 0c4.101 0 7.437 3.212 7.437 7.159a7.006 7.006 0 0 1-1.637 4.478l-10.489 11.54a.805.805 0 0 1-.593.26h-.001zM7.437 1.563c-3.223 0-5.846 2.51-5.846 5.596 0 1.281.442 2.488 1.279 3.49.191.218 6.228 6.842 9.87 10.835l9.874-10.862a5.371 5.371 0 0 0 1.255-3.463c0-3.086-2.623-5.596-5.846-5.596-1.847 0-3.547.81-4.664 2.224-.302.381-.956.381-1.257 0-1.118-1.414-2.818-2.224-4.665-2.224z"/></symbol><symbol id="icon-mail" viewBox="0 0 128 128"><path d="M106.828 85.172L83.32 61.668l23.18-18.543a4.006 4.006 0 0 0 .625-5.625 4.013 4.013 0 0 0-5.625-.625L64 66.879 26.5 36.875a4.013 4.013 0 0 0-5.625.625 4.006 4.006 0 0 0 .625 5.625l23.176 18.543-23.504 23.504a3.997 3.997 0 0 0 0 5.656C21.953 91.609 22.977 92 24 92s2.047-.391 2.828-1.172l24-24c.047-.047.063-.109.105-.156L61.5 75.125a4.01 4.01 0 0 0 5 0l10.566-8.453c.043.047.059.109.105.156l24 24c.782.781 1.806 1.172 2.829 1.172s2.047-.391 2.828-1.172a3.997 3.997 0 0 0 0-5.656z"/><path d="M104 16H24C10.746 16 0 26.746 0 40v48c0 13.254 10.746 24 24 24h80c13.254 0 24-10.746 24-24V40c0-13.254-10.746-24-24-24zm16 72c0 8.824-7.176 16-16 16H24c-8.824 0-16-7.176-16-16V40c0-8.824 7.176-16 16-16h80c8.824 0 16 7.176 16 16v48z"/></symbol><symbol id="icon-map" viewBox="0 0 25.469 23.438"><path d="M351.256 668.279h-29.767v-65.488c11.907-5.953 17.86 0 29.767 0s23.814 0 29.767-5.953v65.488c-11.907 0-17.86 5.953-29.767 5.953zm654.884 285.768c-5.953 0-5.953 0 0 0L994.233 960c-11.907 0-17.86 0-29.767-5.953L666.792 775.442 369.118 954.047c-5.953 5.953-23.814 5.953-35.721 0L17.862 763.535C5.955 757.582.002 745.675.002 733.768V-28.279c0-11.907 5.953-23.814 17.86-29.767 5.953-5.953 11.907-5.953 17.86-5.953s11.907 0 17.86 5.953l297.674 178.605L648.93-58.046c11.907-5.953 23.814-5.953 35.721 0l315.535 190.512c11.907 5.953 17.86 17.86 17.86 29.767V924.28c5.953 11.907 0 23.814-11.907 29.767zm-53.582-768L702.511 37.21v130.977h-23.814c-11.907 0-23.814 0-35.721 5.953V43.163L381.023 186.047v339.349c-5.953 0-17.86 5.953-29.767 5.953-5.953 0-17.86 0-29.767-5.953V192.001L71.442 37.21v678.698l250.047 154.791V739.722h29.767c11.907 0 23.814 0 29.767-5.953v125.023l256-148.837V370.606c11.907-5.953 29.767-5.953 35.721-5.953h23.814v345.302l256 148.837V186.048zM672.744 299.163c-11.907 0-23.814 0-35.721 5.953v-65.488c11.907 0 23.814-5.953 35.721-5.953h23.814v65.488h-23.814zM857.302 448c0 17.86-11.907 29.767-29.767 29.767S797.768 465.86 797.768 448v-59.535c0-11.907-5.953-95.256-119.07-95.256-125.023 0-130.977 83.349-130.977 95.256v113.116c0 59.535-41.674 166.698-196.465 166.698-148.837 0-190.512-113.116-190.512-178.605V293.209c0-17.86 11.907-29.767 29.767-29.767s29.767 11.907 29.767 29.767v196.465c5.953 11.907 11.907 113.116 130.977 113.116s125.023-95.256 125.023-101.209V394.418c0-53.581 41.674-160.744 196.465-160.744 142.884 0 184.558 101.209 184.558 154.791V448zm5.954 172.651c0-19.728-15.993-35.721-35.721-35.721s-35.721 15.993-35.721 35.721c0 19.728 15.993 35.721 35.721 35.721s35.721-15.993 35.721-35.721zm-35.721-47.628c-29.767 0-47.628 23.814-47.628 47.628s23.814 47.628 47.628 47.628 47.628-23.814 47.628-47.628-17.86-47.628-47.628-47.628zm0 71.442c-17.86 0-29.767-11.907-29.767-29.767s11.907-29.767 29.767-29.767 29.767 11.907 29.767 29.767-11.907 29.767-29.767 29.767z"/></symbol><symbol id="icon-pinter" viewBox="0 0 15.313 18"><path d="M6.409 12.603c.394.735 1.548 1.384 2.775 1.384 3.654 0 6.132-3.256 6.132-7.618 0-3.294-2.854-6.365-7.195-6.365C2.722.004-.001 3.79-.001 6.947c0 1.912.741 3.612 2.328 4.244.26.103.493.005.569-.276.053-.197.174-.688.23-.893.077-.279.048-.376-.162-.62-.457-.527-.751-1.212-.751-2.179 0-2.808 2.15-5.323 5.596-5.323 3.052 0 4.727 1.824 4.727 4.258 0 3.206-1.448 5.909-3.601 5.909-1.188 0-2.078-.962-1.795-2.141C7.483 8.519 8.145 7 8.145 5.985c0-.909-.499-1.671-1.533-1.671-1.215 0-2.192 1.232-2.192 2.877 0 1.048.363 1.759.363 1.759s-1.244 5.155-1.464 6.056c-.198.833-.228 1.751-.199 2.521.442.187.901.342 1.37.473.424-.663.882-1.503 1.118-2.345.139-.495.801-3.052.801-3.052z"/></symbol><symbol id="icon-search" viewBox="0 0 14.157 14"><path d="M13.999 13.872a.443.443 0 0 1-.625 0l-4.67-4.635a5.27 5.27 0 0 1-3.421 1.274 5.286 5.286 0 0 1-3.746-1.539 5.232 5.232 0 0 1 0-7.432C2.537.547 3.868 0 5.283 0s2.745.547 3.746 1.54c1.952 1.937 2.035 5.011.295 7.073L14 13.254a.434.434 0 0 1-.001.618zM8.403 2.158A4.399 4.399 0 0 0 5.283.875a4.396 4.396 0 0 0-3.12 1.283 4.361 4.361 0 0 0 0 6.196 4.399 4.399 0 0 0 3.12 1.282 4.402 4.402 0 0 0 3.12-1.282 4.363 4.363 0 0 0 0-6.196z"/></symbol><symbol id="icon-twitter" viewBox="0 0 18.312 14.69"><path d="M18.302 1.777c-.308.168-1.233.504-2.094.588.552-.295 1.371-1.259 1.573-2.026-.532.337-1.753.825-2.356.825v.001a3.79 3.79 0 0 0-2.73-1.153c-2.086 0-3.777 1.671-3.777 3.73 0 .285.033.564.095.832C6.183 4.501 3.088 3.1 1.226.704.08 2.661 1.071 4.838 2.371 5.632c-.445.033-1.264-.052-1.65-.422-.025 1.298.607 3.02 2.915 3.644-.445.237-1.232.169-1.573.119.12 1.097 1.675 2.53 3.376 2.53-.606.693-2.887 1.949-5.447 1.549a11.464 11.464 0 0 0 5.909 1.649c6.095 0 10.827-4.877 10.572-10.893l-.001-.019.001-.047-.002-.055a6.48 6.48 0 0 0 1.831-1.91z"/></symbol><symbol id="icon-twitter@round" viewBox="0 0 56.693 56.693"><path d="M52.837 15.065a20.11 20.11 0 0 1-5.805 1.591 10.125 10.125 0 0 0 4.444-5.592 20.232 20.232 0 0 1-6.418 2.454 10.093 10.093 0 0 0-7.377-3.192c-5.581 0-10.106 4.525-10.106 10.107 0 .791.089 1.562.262 2.303-8.4-.422-15.848-4.445-20.833-10.56a10.055 10.055 0 0 0-1.368 5.082c0 3.506 1.784 6.6 4.496 8.412a10.078 10.078 0 0 1-4.578-1.265l-.001.128c0 4.896 3.484 8.98 8.108 9.91a10.162 10.162 0 0 1-4.565.172c1.287 4.015 5.019 6.938 9.441 7.019a20.276 20.276 0 0 1-12.552 4.327c-.815 0-1.62-.048-2.411-.142a28.6 28.6 0 0 0 15.493 4.541c18.591 0 28.756-15.4 28.756-28.756 0-.438-.009-.875-.028-1.309a20.47 20.47 0 0 0 5.042-5.23z"/></symbol><symbol id="icon-vimeo" viewBox="0 0 18.688 15.78"><path d="M-.012 4.199C1.633 2.941 3.97.181 5.794.181c1.821 0 2.268 2.059 2.517 3.929.251 1.868.967 5.955 1.929 5.955.965 0 3.162-3.615 3.037-5.012-.124-1.396-1.714-1.187-2.59-.786.804-2.795 2.662-4.28 5.037-4.28 2.376 0 2.948 1.608 2.948 3.582 0 3.004-6.359 12.208-10.199 12.208-2.377 0-2.965-3.353-3.446-5.013-.484-1.659-1.431-6.009-2.538-6.287-.43-.069-1.643.854-1.643.854l-.858-1.132z"/></symbol><symbol id="icon-vk@round" viewBox="0 0 512 512"><path d="M280.8 402.065c12.967 0 18.297-8.643 18.123-19.469-.656-40.844 15.234-62.83 43.938-34.189 31.75 31.719 38.313 53.658 76.875 53.658h68.248c53.703 0 5.844-53.814-31.984-88.875-35.971-33.346-37.672-34.143-6.688-74.26 38.453-49.812 88.734-113.999 44.252-113.999H408.64c-16.484 0-17.688 9.608-23.529 23.438-21.219 49.953-61.561 114.735-76.891 104.843-16.047-10.344-8.705-45.437-7.469-106.233.33-16.063.234-27.109-24.328-32.798-67.124-15.563-125.296 15.032-101.532 19.438 33.5 6.251 30.283 72.845 22.484 104.109-13.608 54.445-64.764-43.093-86.091-91.687-5.142-11.688-6.704-21.109-25.079-21.109H16.768c-13.376 0-19.937 6.125-15.264 18.547 4.67 12.405 58.405 132.429 121.937 200.897 58.795 63.375 116.918 57.689 157.359 57.689z"/></symbol></svg>